<svg xmlns="http://www.w3.org/2000/svg" xmlns:xlink="http://www.w3.org/1999/xlink" width="300.484" height="243.972" viewBox="0 0 300.484 243.972">
  <defs>
    <clipPath id="clip-path">
      <path id="Path_45747" data-name="Path 45747" d="M375.58,842.265l-15.828,9.074-2.572,1.474c-3.132-1.538-5.927-1.483-7.925-.1l-5.812,3.333c-2.049,1.168-3.37,3.608-3.532,7.068l-3.074,1.719a65.173,65.173,0,0,0-17.231-5.441c-16.8-2.97-35.849-.6-49.2,7.1-.728.422-1.431.853-2.1,1.293-8.3,5.419-12.445,12.225-12.416,19.018a.022.022,0,0,0,0-.01l.02,16.836c.022,7.242,4.779,14.474,14.285,20h0a0,0,0,0,0,0,0c.781.453,1.588.881,2.406,1.3,8.65,4.4,19.338,6.742,30.172,7.017,11.921.3,24.006-1.9,33.72-6.6,1.118-.542,2.209-1.108,3.26-1.714,9.422-5.441,14.26-12.533,14.505-19.663.008-.2.012-.4.012-.62l-.02-16.846c0,.033,0,.063,0,.095,0-.338-.008-.676-.028-1.013a7.2,7.2,0,0,0,5.976-.288.084.084,0,0,1,.012-.007l6.224-3.57a6.011,6.011,0,0,0,2.031-1.936,10.073,10.073,0,0,0,1.488-5.2l14.612-8.378,3.818-2.189C387.552,855.927,382.244,846.875,375.58,842.265ZM262.061,900.553c-.072-.075-.14-.15-.211-.227.09.095.18.192.27.285C262.1,900.593,262.081,900.573,262.061,900.553Zm88.11-2.615-.063.082c.03-.04.06-.078.088-.117Zm.908-1.294c-.008.013-.018.027-.028.04.017-.027.033-.052.051-.078A.267.267,0,0,1,351.079,896.643Z" transform="translate(-255.889 -842.265)" fill="none"/>
    </clipPath>
  </defs>
  <g id="bitcoin_key_wallet" data-name="bitcoin key wallet" transform="translate(-18.381 -0.028)">
    <g id="Group_66054" data-name="Group 66054" transform="translate(18.381 102.535)">
      <path id="Path_45701" data-name="Path 45701" d="M392.049,1034.22c2.783-1.607,3.3-4.031,1.544-5.936l54.347-31.374a61.388,61.388,0,0,0,18.851,5.949l-27.558,15.911,18.7,10.865-14.7,8.488a13.748,13.748,0,0,0-10.242.88c-3.4,1.964-3.42,5.15-.04,7.114a13.536,13.536,0,0,0,12.282,0c2.785-1.608,3.3-4.029,1.553-5.93l18.271-10.549-18.7-10.868,26.368-15.224a79.666,79.666,0,0,0,12.487-.007l26.209,15.231-18.824,10.868-9.7,5.6a13.742,13.742,0,0,0-10.243.873c-3.4,1.964-3.42,5.15-.04,7.114a13.525,13.525,0,0,0,12.283,0c2.778-1.6,3.3-4.021,1.546-5.926l9.7-5.6,14.606,8.488c-1.767,1.9-1.281,4.322,1.486,5.93a13.536,13.536,0,0,0,12.282,0c3.4-1.964,3.42-5.15.04-7.114a13.709,13.709,0,0,0-10.232-.88l-14.607-8.489,18.818-10.864-27.379-15.911a62.293,62.293,0,0,0,18.918-5.948l53.995,31.374c-1.777,1.9-1.29,4.329,1.476,5.936a13.536,13.536,0,0,0,12.282,0c3.4-1.964,3.42-5.15.04-7.114a13.707,13.707,0,0,0-10.224-.88l-54-31.376c5.018-3.231,8.462-6.988,10.318-10.946l27.392,15.918,18.818-10.865,14.607,8.488c-1.774,1.905-1.281,4.322,1.486,5.93a13.524,13.524,0,0,0,12.282,0c3.4-1.964,3.42-5.15.04-7.114a13.711,13.711,0,0,0-10.232-.88l-14.607-8.488,9.7-5.6a13.743,13.743,0,0,0,10.243-.88c3.4-1.964,3.426-5.146.04-7.114a13.536,13.536,0,0,0-12.282,0c-2.785,1.608-3.3,4.029-1.546,5.934l-9.7,5.6L551.371,995.7,525.162,980.47a15.476,15.476,0,0,0,.041-7.226l26.381-15.231,18.7,10.868,18.272-10.549a13.747,13.747,0,0,0,10.236-.876c3.4-1.964,3.42-5.15.04-7.114a13.536,13.536,0,0,0-12.282,0c-2.778,1.6-3.292,4.025-1.553,5.93l-14.7,8.484-18.7-10.865-27.571,15.918c-1.824-3.958-5.213-7.716-10.2-10.943l54.356-31.378a13.748,13.748,0,0,0,10.243-.878c3.4-1.964,3.42-5.15.04-7.114a13.536,13.536,0,0,0-12.282,0c-2.78,1.6-3.3,4.024-1.552,5.927l-54.351,31.382a61.581,61.581,0,0,0-18.864-5.941L519,934.943l-18.689-10.861,14.7-8.488a13.746,13.746,0,0,0,10.236-.876c3.4-1.964,3.42-5.15.034-7.118a13.537,13.537,0,0,0-12.282,0c-2.778,1.6-3.3,4.029-1.546,5.933L493.19,924.078l18.7,10.865L485.5,950.178a78.862,78.862,0,0,0-12.462,0L446.82,934.943l17.043-9.832,11.486-6.632a13.748,13.748,0,0,0,10.242-.88c3.4-1.964,3.42-5.15.04-7.114a13.538,13.538,0,0,0-12.282,0c-2.779,1.6-3.3,4.029-1.553,5.93l-9.7,5.6-14.606-8.488c1.767-1.9,1.281-4.322-1.479-5.926a13.537,13.537,0,0,0-12.283,0c-3.409,1.968-3.42,5.15-.04,7.115a13.7,13.7,0,0,0,10.232.88l14.6,8.484L439.7,934.943l27.4,15.922a62.171,62.171,0,0,0-18.931,5.941l-54-31.375c1.777-1.9,1.287-4.327-1.48-5.935a13.537,13.537,0,0,0-12.282,0c-3.4,1.964-3.42,5.15-.04,7.114a13.71,13.71,0,0,0,10.229.879L444.6,958.866c-5.025,3.227-8.456,6.984-10.331,10.939L406.886,953.89l-18.818,10.865-14.6-8.484c1.767-1.9,1.274-4.326-1.486-5.93a13.536,13.536,0,0,0-12.283,0c-3.4,1.964-3.42,5.15-.04,7.114a13.708,13.708,0,0,0,10.226.876l14.606,8.488-9.7,5.6a13.746,13.746,0,0,0-10.236.876c-3.4,1.964-3.42,5.15-.04,7.114a13.536,13.536,0,0,0,12.282,0c2.778-1.6,3.292-4.025,1.547-5.926l11.486-6.639,17.036-9.836,26.216,15.235a15.544,15.544,0,0,0-.053,7.226L406.651,995.7l-18.7-10.865-18.271,10.549a13.744,13.744,0,0,0-10.248.876c-3.4,1.964-3.42,5.15-.04,7.114a13.538,13.538,0,0,0,12.289,0c2.785-1.608,3.3-4.029,1.552-5.93l14.7-8.488,18.689,10.861,27.565-15.915c1.811,3.958,5.219,7.712,10.2,10.943l-54.346,31.377a13.748,13.748,0,0,0-10.241.879c-3.4,1.964-3.42,5.15-.04,7.114A13.538,13.538,0,0,0,392.049,1034.22Zm57.635-74.469c16.363-9.447,42.809-9.451,59.066,0s16.17,24.769-.193,34.217-42.809,9.451-59.072,0S433.32,969.2,449.684,959.752Z" transform="translate(-356.872 -906.126)" fill="#e9f0f7"/>
      <path id="Path_45702" data-name="Path 45702" d="M837.49,1195.128a23.032,23.032,0,0,1,8.663-8.086c13.636-7.873,35.749-7.873,49.295,0,6.7,3.894,10.388,9.123,10.38,14.722-.007,5.636-3.751,10.9-10.541,14.819-13.635,7.872-35.751,7.872-49.3,0-6.7-3.893-10.384-9.12-10.376-14.718A13.4,13.4,0,0,1,837.49,1195.128Zm64.97,12.516a11.711,11.711,0,0,0,1.653-5.883c.007-4.962-3.376-9.663-9.527-13.237-13.072-7.6-34.414-7.595-47.576,0-6.238,3.6-9.677,8.339-9.684,13.338-.007,4.961,3.375,9.661,9.523,13.233,13.075,7.6,34.42,7.6,47.581,0A21.35,21.35,0,0,0,902.46,1207.644Z" transform="translate(-748.472 -1131.08)" fill="#e9f0f7"/>
      <path id="Path_45703" data-name="Path 45703" d="M926.008,1235.4c10.6-6.118,10.656-16.037.125-22.157s-27.652-6.115-38.248,0-10.656,16.037-.129,22.155S915.412,1241.515,926.008,1235.4Z" transform="translate(-784.697 -1153.587)" fill="#e9f0f7"/>
    </g>
    <g id="Group_66102" data-name="Group 66102" transform="translate(55 14)">
      <g id="Group_66101" data-name="Group 66101">
        <g id="Group_66076" data-name="Group 66076" transform="translate(56.404)">
          <g id="Group_66075" data-name="Group 66075">
            <g id="Group_66074" data-name="Group 66074">
              <g id="Group_66055" data-name="Group 66055" transform="translate(138.122 99.114)">
                <path id="Path_45704" data-name="Path 45704" d="M1355.417,916.664c1.777,1.033,2.667,2.388,2.671,3.746l.1,33.977c0-1.358-.894-2.713-2.671-3.746L1324.7,932.732l-.1-33.977Z" transform="translate(-1324.599 -896.675)" fill="#0c3461"/>
                <path id="Path_45705" data-name="Path 45705" d="M1355.417,907.317,1324.6,889.408l3.6-2.08,30.817,17.909c2.766,1.607,4.146,3.715,4.147,5.826h-5.081C1358.082,909.705,1357.194,908.35,1355.417,907.317Z" transform="translate(-1324.599 -887.328)" fill="#175294"/>
              </g>
              <g id="Group_66058" data-name="Group 66058" transform="translate(8.228)">
                <g id="Group_66056" data-name="Group 66056" transform="translate(152.712 75.978)">
                  <path id="Path_45706" data-name="Path 45706" d="M1449.956,765.637l.357,125.964,9.379-5.415-.357-125.964Z" transform="translate(-1449.956 -760.222)" fill="#144b8a"/>
                </g>
                <path id="Path_45707" data-name="Path 45707" d="M680.364,512.037c-.143-.049-.282-.1-.427-.146-.249-.078-.5-.147-.758-.216-.192-.052-.381-.108-.576-.155-.268-.065-.541-.119-.813-.174-.185-.038-.368-.079-.555-.112-.551-.1-1.11-.174-1.675-.233-.172-.018-.344-.029-.516-.043-.333-.028-.667-.052-1-.067-.212-.009-.424-.014-.636-.018-.27,0-.54-.007-.811,0-.224,0-.447.01-.671.018-.251.01-.5.023-.751.04q-.339.023-.677.056-.371.036-.74.083-.329.042-.654.092c-.263.041-.524.087-.784.136-.2.039-.407.079-.608.123-.31.068-.614.144-.917.225-.167.044-.335.086-.5.134-.54.157-1.067.334-1.576.532-.252.1-.5.206-.739.314-.126.056-.257.107-.381.166-.37.176-.73.362-1.076.561l-.357-125.964c.346-.2.706-.386,1.076-.561.124-.059.255-.11.381-.166.218-.1.432-.2.656-.286.027-.011.056-.018.083-.028.51-.2,1.037-.375,1.577-.532.042-.012.081-.029.123-.042.123-.035.252-.059.376-.092.3-.08.608-.157.918-.225.081-.018.158-.042.24-.059.121-.025.246-.041.368-.064.26-.049.52-.1.784-.136.1-.016.2-.039.308-.053s.232-.024.347-.039c.246-.031.492-.059.739-.083.116-.011.23-.029.347-.039s.22-.01.33-.018c.25-.017.5-.03.751-.04.124,0,.247-.017.371-.02.1,0,.2,0,.3,0,.271,0,.542,0,.813,0,.133,0,.266,0,.4,0,.079,0,.156.012.234.016.336.015.67.039,1,.067.132.011.265.013.4.026.04,0,.079.012.119.017q.846.089,1.674.233c.028,0,.057.007.085.012.16.029.314.069.472.1.272.055.545.109.812.174.195.047.384.1.576.155.255.069.51.138.759.216.054.017.112.03.166.047.09.029.172.068.261.1q.589.2,1.15.436c.14.059.281.116.418.178a15.212,15.212,0,0,1,1.383.7l122.6,71.248.357,125.964-122.6-71.247a15.2,15.2,0,0,0-1.382-.7c-.138-.062-.28-.12-.42-.179Q680.952,512.237,680.364,512.037Z" transform="translate(-652.845 -377.241)" fill="#0c3461"/>
                <g id="Group_66057" data-name="Group 66057">
                  <path id="Path_45708" data-name="Path 45708" d="M610.97,347.537l9.318,5.415c5.751-3.32,15.08-3.32,20.794,0l122.6,71.247,9.379-5.415-122.6-71.247C639.608,341.23,621.894,341.23,610.97,347.537Z" transform="translate(-610.97 -342.807)" fill="#27639e"/>
                </g>
              </g>
              <g id="Group_66059" data-name="Group 66059" transform="translate(160.218 122.839)">
                <path id="Path_45709" data-name="Path 45709" d="M1474.363,1023.573c.316-.182.607-.373.887-.567.08-.056.157-.112.234-.169.158-.116.3-.235.45-.354q.307-.251.577-.512c.1-.1.2-.193.3-.292.132-.14.25-.282.367-.425.093-.113.189-.225.272-.339s.17-.255.25-.383.161-.253.23-.381.12-.248.175-.373.12-.265.167-.4.082-.265.118-.4.072-.26.1-.391c.029-.153.042-.307.056-.46s.037-.3.036-.456l.1,33.977q0,.091,0,.181c0,.092-.025.183-.033.274-.014.154-.027.307-.056.46-.007.036-.006.073-.013.109-.02.095-.058.188-.083.282-.036.133-.07.266-.117.4-.013.038-.019.076-.034.113-.037.1-.091.19-.134.286-.056.125-.109.249-.175.373-.019.035-.03.071-.05.106-.052.093-.122.183-.18.275-.081.128-.159.256-.25.382-.025.034-.042.069-.068.1-.061.081-.139.157-.2.237-.117.143-.235.285-.367.425-.037.039-.065.08-.1.119-.059.059-.135.115-.2.174-.181.174-.372.344-.577.512-.063.051-.112.106-.177.156-.087.067-.183.131-.274.2s-.154.113-.234.169c-.28.194-.571.385-.887.567l-8.673,5.006-.1-33.977Z" transform="translate(-1462.105 -1017.675)" fill="#114077"/>
                <path id="Path_45710" data-name="Path 45710" d="M1462.463,1017.727c0,2.131-1.4,4.266-4.213,5.889l-8.673,5.007-3.585-2.084,8.673-5.007c1.817-1.049,2.722-2.428,2.718-3.8h5.081Z" transform="translate(-1445.992 -1017.717)" fill="#175294"/>
              </g>
              <g id="Group_66062" data-name="Group 66062" transform="translate(26.803 11.057)">
                <g id="Group_66060" data-name="Group 66060" transform="translate(6.802)">
                  <path id="Path_45711" data-name="Path 45711" d="M750.39,403.551V523.443l125.457,72.433V475.981Z" transform="translate(-750.39 -403.551)" fill="#bbb"/>
                </g>
                <g id="Group_66061" data-name="Group 66061" transform="translate(0 3.929)">
                  <path id="Path_45712" data-name="Path 45712" d="M713.022,425.135V545.027L838.479,617.46V497.565Z" transform="translate(-713.022 -425.135)" fill="#27639e"/>
                </g>
                <path id="Path_45713" data-name="Path 45713" d="M1402.273,925.3l6.8-3.929V801.475l-6.8,3.929Z" transform="translate(-1276.815 -729.045)" fill="#aec7e6"/>
                <path id="Path_45714" data-name="Path 45714" d="M719.824,403.551l-6.8,3.929,125.457,72.43,6.8-3.929Z" transform="translate(-713.022 -403.551)" fill="#dce9f5"/>
              </g>
              <g id="Group_66065" data-name="Group 66065" transform="translate(18.089 16.089)">
                <g id="Group_66063" data-name="Group 66063" transform="translate(6.802)">
                  <path id="Path_45715" data-name="Path 45715" d="M702.518,431.2V551.091l125.457,72.433V503.629Z" transform="translate(-702.518 -431.199)" fill="#bbb"/>
                </g>
                <g id="Group_66064" data-name="Group 66064" transform="translate(0 3.929)">
                  <path id="Path_45716" data-name="Path 45716" d="M665.149,452.784V572.676l125.457,72.433V525.214Z" transform="translate(-665.149 -452.784)" fill="#27639e"/>
                </g>
                <path id="Path_45717" data-name="Path 45717" d="M1354.4,952.946l6.8-3.929V829.123l-6.8,3.929Z" transform="translate(-1228.943 -756.693)" fill="#aec7e6"/>
                <path id="Path_45718" data-name="Path 45718" d="M671.951,431.2l-6.8,3.929,125.457,72.43,6.8-3.929Z" transform="translate(-665.149 -431.199)" fill="#dce9f5"/>
              </g>
              <g id="Group_66069" data-name="Group 66069" transform="translate(0 4.73)">
                <g id="Group_66066" data-name="Group 66066" transform="translate(8.228)">
                  <path id="Path_45719" data-name="Path 45719" d="M610.97,368.794l.357,125.964,9.318,5.415-.357-125.964Z" transform="translate(-610.97 -368.794)" fill="#bbb"/>
                </g>
                <path id="Path_45720" data-name="Path 45720" d="M642.691,398.544l.357,125.964a10.908,10.908,0,0,0-2.644,2.074,7.139,7.139,0,0,0-1.083,1.547,5.81,5.81,0,0,0-.338.8,5.127,5.127,0,0,0-.267,1.639l-.357-125.964C638.352,402.413,639.8,400.215,642.691,398.544Z" transform="translate(-625.145 -393.129)" fill="#0c3461"/>
                <g id="Group_66067" data-name="Group 66067" transform="translate(130.706 88.707)">
                  <path id="Path_45721" data-name="Path 45721" d="M1283.853,861.553l.357,125.964,9.373-5.411-.357-125.964Z" transform="translate(-1283.853 -856.142)" fill="#144b8a"/>
                </g>
                <path id="Path_45722" data-name="Path 45722" d="M565.79,432.531c.008.141.016.281.03.421.012.123.029.245.046.368.02.14.04.279.066.419.023.123.049.247.077.37s.063.273.1.409.07.246.108.369.086.27.134.4.089.242.137.362q.084.212.178.422c.053.118.107.237.165.354.068.14.141.279.216.419.061.113.123.227.189.339.1.166.2.331.307.5.064.1.126.2.194.3.125.183.26.364.4.545.058.077.112.155.173.231.226.285.468.566.724.844.067.073.139.144.208.216q.3.317.63.627c.1.094.2.188.3.281.131.118.266.234.4.351s.253.214.385.321.288.228.435.341.274.209.416.312.31.22.469.33.295.2.447.3.334.214.5.319c.213.133.424.266.646.395l122.6,71.247.357,125.964-122.6-71.247q-.171-.1-.339-.2c-.106-.064-.2-.13-.307-.194-.17-.106-.34-.212-.5-.319s-.3-.2-.447-.3-.316-.219-.469-.329-.279-.208-.416-.312-.294-.226-.435-.341-.258-.213-.384-.32-.271-.233-.4-.351c-.053-.048-.11-.094-.162-.141s-.092-.094-.141-.14q-.328-.31-.63-.627c-.069-.072-.141-.144-.208-.216-.256-.279-.5-.56-.725-.846l-.028-.033c-.05-.063-.092-.128-.14-.192-.139-.183-.275-.366-.4-.55-.067-.1-.129-.2-.193-.3-.107-.165-.211-.331-.308-.5-.026-.044-.057-.088-.082-.132-.038-.068-.069-.137-.106-.206-.075-.14-.148-.28-.217-.421-.057-.117-.111-.234-.164-.352q-.094-.211-.179-.424c-.025-.062-.055-.124-.079-.187s-.037-.116-.057-.174c-.048-.135-.092-.27-.134-.405s-.074-.245-.108-.368-.069-.273-.1-.409c-.016-.073-.039-.146-.053-.219-.01-.05-.014-.1-.024-.151-.026-.14-.046-.279-.066-.419-.017-.122-.034-.245-.046-.367-.014-.141-.023-.282-.03-.423,0-.082-.015-.164-.018-.246s0-.164,0-.246l-.357-125.964C565.769,432.2,565.781,432.367,565.79,432.531Z" transform="translate(-565.769 -420.526)" fill="#114077"/>
                <g id="Group_66068" data-name="Group 66068" transform="translate(0 0)">
                  <path id="Path_45723" data-name="Path 45723" d="M574,368.794c-10.924,6.307-10.975,16.564-.122,22.871l122.6,71.247,9.373-5.411-122.6-71.247c-5.713-3.32-5.683-8.724.068-12.044Z" transform="translate(-565.768 -368.794)" fill="#27639e"/>
                </g>
              </g>
              <g id="Group_66071" data-name="Group 66071" transform="translate(107.078 131.66)" style="mix-blend-mode: normal;isolation: isolate">
                <path id="Path_45724" data-name="Path 45724" d="M1167.442,1090.924c.291.169.6.325.908.477.448.219.911.423,1.393.605.118.044.242.082.362.124.311.11.625.217.947.313.2.057.4.107.594.159.228.06.456.121.688.173.217.049.437.09.657.133s.43.085.647.121.452.066.679.1.438.06.658.083.436.037.655.054c.244.019.487.039.732.05.2.009.4.011.593.016.293.007.586.011.88.008.184,0,.368-.009.551-.015q.558-.019,1.113-.063c.191-.015.382-.028.572-.048.172-.018.344-.039.516-.061q.384-.048.763-.108.257-.041.513-.087c.218-.04.434-.085.65-.131q.39-.083.774-.18.292-.074.579-.155c.252-.072.5-.149.746-.23.186-.061.371-.123.553-.189.244-.089.481-.185.718-.283.173-.072.346-.142.515-.219.238-.109.467-.227.7-.345.194-.1.393-.2.579-.3l23.1-13.335.1,33.977-23.1,13.335-.217.123c-.117.065-.245.119-.365.181-.227.118-.455.235-.692.343-.169.077-.343.147-.516.219-.236.1-.473.194-.716.282-.182.066-.368.128-.554.189-.245.081-.492.158-.744.229-.192.055-.385.106-.581.156-.256.065-.514.124-.774.18-.112.024-.221.055-.334.078s-.209.034-.314.053q-.257.047-.516.088-.379.06-.761.108c-.172.022-.344.043-.517.061-.083.009-.165.022-.249.029-.107.01-.215.01-.322.019q-.556.044-1.114.063c-.1,0-.205.015-.308.018-.082,0-.163,0-.245,0-.294,0-.586,0-.88-.008-.137,0-.274,0-.411,0-.06,0-.12-.01-.181-.012-.247-.012-.492-.032-.738-.051-.162-.013-.325-.018-.486-.033-.055-.005-.108-.015-.163-.021-.222-.023-.442-.054-.663-.084-.171-.023-.343-.038-.513-.065-.055-.009-.109-.021-.164-.03-.217-.036-.43-.079-.645-.12-.167-.032-.336-.058-.5-.094-.054-.012-.106-.028-.16-.04-.231-.052-.456-.113-.683-.172-.156-.041-.317-.074-.471-.119-.043-.012-.084-.029-.127-.042-.32-.094-.632-.2-.941-.311-.107-.038-.219-.068-.324-.107-.015-.005-.028-.013-.043-.019-.481-.182-.944-.386-1.391-.6-.041-.02-.087-.035-.127-.055q-.4-.2-.781-.421l-13.4-7.773-.1-33.977Z" transform="translate(-1154.045 -1075.501)" fill="#144b8a"/>
                <g id="Group_66070" data-name="Group 66070">
                  <path id="Path_45725" data-name="Path 45725" d="M1154.045,1073.788l13.4,7.773c5.559,3.23,14.636,3.227,20.231,0l23.1-13.336-3.585-2.083-21.839,12.609c-4.348,2.358-11.576,2.31-15.156.23l-12.536-7.273Z" transform="translate(-1154.045 -1066.138)" fill="#27639e"/>
                </g>
                <path id="Path_45726" data-name="Path 45726" d="M1333.508,1077.585l-23.1,13.335c-.186.107-.386.2-.579.3-.229.118-.458.236-.7.345-.168.077-.342.147-.515.219-.236.1-.474.194-.718.283-.182.066-.367.128-.553.189-.246.081-.494.158-.746.23q-.287.082-.579.155-.383.1-.774.18c-.216.046-.432.092-.65.131q-.252.046-.506.086v33.991l.088-.012q.26-.041.516-.088c.1-.019.21-.033.314-.053s.221-.053.334-.077c.261-.056.518-.115.774-.18.2-.049.389-.1.581-.156.251-.072.5-.149.744-.229.187-.061.372-.123.554-.189.244-.089.48-.185.716-.282.173-.072.347-.142.516-.219.237-.108.465-.225.692-.343.12-.062.248-.116.365-.181l.218-.123,23.1-13.335Z" transform="translate(-1276.783 -1075.501)" fill="#144b8a"/>
              </g>
              <g id="Group_66073" data-name="Group 66073" transform="translate(102.276 151.56)" style="mix-blend-mode: normal;isolation: isolate">
                <path id="Path_45727" data-name="Path 45727" d="M1169.14,1196.228c-.028-.2-.064-.394-.1-.592-.026-.136-.049-.272-.08-.409s-.061-.252-.093-.378c-.045-.178-.09-.355-.142-.534-.03-.1-.061-.2-.093-.306q-.094-.3-.2-.6c-.029-.081-.057-.161-.087-.242-.1-.274-.212-.548-.33-.82-.013-.03-.028-.06-.041-.091-.108-.244-.223-.486-.342-.725q-.055-.11-.111-.22-.175-.34-.365-.674c-.024-.042-.046-.085-.071-.126-.15-.258-.307-.512-.469-.763-.047-.073-.1-.144-.145-.216q-.18-.27-.369-.531-.1-.142-.207-.281c-.11-.146-.223-.288-.336-.43-.1-.118-.191-.236-.288-.351s-.189-.216-.285-.323q-.243-.271-.495-.527c-.082-.083-.165-.167-.248-.248a13.751,13.751,0,0,0-1.047-.92c-.064-.05-.129-.1-.193-.145a11.255,11.255,0,0,0-1.16-.784,8.986,8.986,0,0,0-.937-.466c-.1-.043-.195-.08-.292-.117-.177-.068-.353-.129-.526-.181-.111-.033-.221-.066-.33-.093s-.2-.046-.305-.065c-.133-.025-.264-.046-.394-.061-.075-.008-.15-.017-.224-.022a4.711,4.711,0,0,0-.477-.01c-.036,0-.074,0-.11,0a4.143,4.143,0,0,0-.55.069c-.044.008-.087.02-.13.03a3.764,3.764,0,0,0-.41.118c-.042.015-.084.028-.126.044a3.569,3.569,0,0,0-.488.232l2.114-1.229.041-.023a3.54,3.54,0,0,1,.374-.183c.024-.01.05-.016.074-.026.041-.016.083-.03.125-.044.065-.023.128-.049.194-.068s.144-.033.216-.05c.044-.01.087-.022.131-.03.024,0,.046-.012.071-.016a4.252,4.252,0,0,1,.45-.053h.03c.035,0,.072,0,.108,0,.117,0,.234-.008.355,0,.04,0,.083.01.124.012.073.005.148.014.222.022s.138.01.209.021.125.028.187.04c.1.019.2.04.3.065.055.013.108.02.164.035s.112.041.167.057c.173.052.348.113.526.182.062.024.122.037.185.063.035.015.072.038.106.053a8.968,8.968,0,0,1,.937.466,11.273,11.273,0,0,1,1.16.784c.064.049.129.095.192.145a13.636,13.636,0,0,1,1.047.921c.028.027.059.049.087.077.054.054.1.114.158.168q.254.258.5.53c.052.058.107.11.158.169s.083.1.125.152c.1.116.194.234.29.353.063.078.128.152.19.231s.1.132.145.2c.07.093.139.187.208.282.047.065.1.127.142.193.077.11.15.224.225.336.048.072.1.144.146.217.02.031.041.06.061.09q.2.311.385.63l.024.043c.024.041.046.083.069.124.087.153.174.305.257.46.038.071.072.143.109.215s.075.148.112.222.068.131.1.2c.083.173.162.348.239.523.014.032.03.064.044.1l.012.027q.144.332.273.668c.016.041.029.082.044.122.031.082.059.163.088.245.04.112.083.224.12.336.029.087.052.174.08.262s.063.2.093.306c.019.064.041.128.058.192.032.114.055.228.084.343s.064.252.093.377c.01.045.023.09.033.134.02.092.03.183.047.275.038.2.073.4.1.592.008.055.021.111.028.165s0,.1.01.152a11.03,11.03,0,0,1,.085,1.305c-.007,2.346-.836,4-2.173,4.775l-2.114,1.229c1.337-.777,2.166-2.428,2.173-4.775a11.032,11.032,0,0,0-.085-1.305C1169.166,1196.44,1169.155,1196.334,1169.14,1196.228Z" transform="translate(-1151.286 -1181.42)" fill="#27639e"/>
                <g id="Group_66072" data-name="Group 66072" transform="translate(0 0)">
                  <ellipse id="Ellipse_4299" data-name="Ellipse 4299" cx="6.08" cy="10.497" rx="6.08" ry="10.497" transform="matrix(0.865, -0.502, 0.502, 0.865, 0, 6.11)" fill="#dce9f5"/>
                </g>
              </g>
            </g>
          </g>
        </g>
        <g id="Group_66100" data-name="Group 66100" transform="translate(0 88.019)">
          <g id="Group_66078" data-name="Group 66078" transform="translate(103.791 0)">
            <g id="Group_66077" data-name="Group 66077">
              <path id="Path_45728" data-name="Path 45728" d="M840.563,828.352c7.961,4.6,14.388,15.734,14.362,24.876-.02,6.89-3.7,10.681-8.917,10.166l-.1,22.968c-.01,3.515-2.495,4.936-5.553,3.17a12.165,12.165,0,0,1-5.518-9.562l.1-22.968c-5.2-5.5-8.85-13.522-8.83-20.412C826.132,827.448,832.606,823.759,840.563,828.352Z" transform="translate(-826.107 -826.377)" fill="#002045"/>
            </g>
            <path id="Path_45729" data-name="Path 45729" d="M840.563,828.352c-7.956-4.593-14.43-.9-14.456,8.238-.02,6.89,3.628,14.912,8.83,20.412L853.8,846.11C851.63,838.912,846.527,831.8,840.563,828.352Z" transform="translate(-826.107 -826.377)" fill="#0c3461"/>
            <path id="Path_45730" data-name="Path 45730" d="M943.28,1004.923l-7.822,4.519A7.352,7.352,0,0,0,943.28,1004.923Z" transform="translate(-915.554 -972.424)" fill="#0c3461"/>
          </g>
          <g id="Group_66099" data-name="Group 66099" transform="translate(0 2.892)">
            <g id="Group_66098" data-name="Group 66098" clip-path="url(#clip-path)">
              <g id="Group_66097" data-name="Group 66097" transform="translate(0.001 -9.65)">
                <g id="Group_66081" data-name="Group 66081" transform="translate(89.27 0)">
                  <g id="Group_66079" data-name="Group 66079" transform="translate(34.571)">
                    <ellipse id="Ellipse_4300" data-name="Ellipse 4300" cx="7.308" cy="12.618" rx="7.308" ry="12.618" transform="translate(0 7.273) rotate(-29.838)" fill="#c8b482"/>
                  </g>
                  <path id="Path_45731" data-name="Path 45731" d="M793.715,848.275c1.634-.94,2.645-2.957,2.646-5.827,0-.346-.015-.693-.046-1.045-.009-.117-.025-.237-.038-.353-.025-.23-.05-.459-.084-.687-.072-.468-.167-.934-.281-1.4-.036-.144-.077-.286-.116-.432-.071-.256-.143-.517-.225-.776-.055-.17-.112-.338-.172-.507-.074-.212-.15-.425-.233-.634-.067-.177-.137-.356-.213-.53-.082-.2-.167-.389-.253-.58s-.164-.356-.252-.529c-.093-.192-.19-.383-.288-.573-.091-.168-.181-.339-.275-.509-.115-.2-.231-.4-.35-.6-.095-.155-.189-.312-.285-.464-.152-.242-.316-.478-.478-.71-.085-.126-.167-.25-.255-.37-.288-.393-.583-.775-.893-1.142-.1-.125-.215-.247-.323-.367-.158-.18-.312-.357-.475-.528-.119-.126-.243-.244-.363-.363-.162-.159-.322-.32-.486-.469-.1-.086-.194-.17-.292-.253s-.181-.158-.272-.234c-.182-.151-.364-.295-.548-.435-.1-.079-.206-.161-.312-.238-.365-.26-.736-.509-1.116-.729-.17-.1-.337-.175-.506-.261s-.328-.17-.488-.24c-.141-.062-.281-.112-.419-.165-.156-.063-.314-.128-.471-.176-.094-.031-.185-.053-.281-.078a6.146,6.146,0,0,0-.763-.175c-.108-.02-.217-.037-.323-.052-.181-.02-.356-.029-.53-.033-.109-.005-.22-.012-.326-.008a4,4,0,0,0-.433.038c-.111.013-.223.021-.33.04a3.672,3.672,0,0,0-.381.095c-.109.029-.216.055-.321.091-.127.046-.245.1-.366.161s-.228.1-.336.156l34.577-19.82c.031-.021.063-.036.1-.055.074-.042.158-.067.237-.105.12-.054.242-.114.367-.157.022-.011.043-.021.063-.029.082-.029.172-.039.256-.064.127-.034.252-.07.381-.095.03-.006.055-.015.08-.019.082-.014.169-.014.252-.024.142-.014.287-.031.432-.035.036,0,.071-.009.1-.009.073,0,.15.013.223.013.174,0,.351.018.531.038.05.006.1,0,.154.012s.115.028.168.036c.251.045.505.1.766.177.063.017.121.024.187.043.029.009.063.025.095.036.155.051.314.116.471.176.138.053.276.1.415.167.163.071.327.158.494.243.116.059.231.106.347.17l.156.09a13.021,13.021,0,0,1,1.116.729c.106.076.207.154.311.233.184.141.366.284.546.438.092.073.185.153.277.233.061.054.124.1.185.153.036.032.069.067.1.1.165.153.325.315.487.473.122.121.244.237.36.362.163.171.323.352.481.531.091.1.188.2.277.306.017.017.027.039.044.056.308.366.6.749.888,1.143.022.028.046.053.067.085.066.092.126.188.19.283.163.236.323.471.476.713.037.056.078.11.114.169.06.1.113.2.174.3.118.195.235.4.347.6.042.074.088.147.13.221.052.1.1.194.145.288.1.189.2.378.292.572.04.084.089.166.128.251s.077.186.12.277c.088.193.172.388.254.585.036.09.082.178.119.273s.06.169.092.253c.084.214.161.427.234.639.034.1.078.2.112.3.021.07.037.136.058.206.082.258.156.516.225.775.031.106.069.213.1.32.01.036.012.072.02.112.116.47.212.937.283,1.4,0,.026.01.048.015.074.031.206.049.408.069.612.012.118.032.238.041.354.026.353.042.7.043,1.043,0,2.874-1.011,4.891-2.646,5.827Z" transform="translate(-774.821 -802.929)" fill="#f9c166"/>
                  <g id="Group_66080" data-name="Group 66080" transform="translate(0 19.819)">
                    <ellipse id="Ellipse_4301" data-name="Ellipse 4301" cx="7.308" cy="12.618" rx="7.308" ry="12.618" transform="matrix(0.867, -0.498, 0.498, 0.867, 0, 7.272)" fill="#c8b482"/>
                  </g>
                  <path id="Path_45732" data-name="Path 45732" d="M885.742,827.625c.057-.061.112-.124.166-.189l.045-.055q.093-.115.181-.237l.008-.011a7.707,7.707,0,0,0,1.216-4.509c0-.343-.017-.69-.043-1.043-.009-.117-.029-.236-.041-.354-.021-.2-.038-.406-.069-.612,0-.026-.011-.048-.015-.074-.071-.463-.166-.93-.283-1.4-.008-.039-.01-.075-.02-.112-.026-.107-.065-.214-.1-.32-.069-.259-.143-.517-.225-.775-.021-.07-.037-.136-.058-.206-.034-.1-.078-.2-.112-.3-.074-.212-.15-.425-.234-.639-.032-.084-.058-.172-.092-.253s-.083-.182-.119-.273c-.082-.2-.166-.391-.254-.585-.044-.091-.078-.184-.12-.277s-.089-.166-.128-.251c-.1-.194-.19-.383-.292-.572-.049-.094-.093-.192-.145-.288-.042-.074-.088-.147-.13-.221-.112-.2-.229-.4-.347-.6-.061-.1-.115-.2-.174-.3-.035-.059-.077-.113-.114-.169-.153-.242-.313-.476-.476-.713-.064-.095-.124-.191-.19-.283-.021-.031-.044-.056-.067-.085-.283-.394-.581-.777-.888-1.143-.017-.017-.027-.039-.044-.056-.089-.105-.186-.2-.277-.306-.158-.179-.318-.36-.481-.531-.133-.143-.273-.275-.414-.415-.159-.159-.323-.312-.484-.468l-.053-.05c-.061-.054-.124-.1-.185-.153-.092-.08-.184-.16-.277-.233-.18-.154-.362-.3-.546-.438-.1-.079-.205-.157-.311-.233a13.022,13.022,0,0,0-1.116-.729l-.156-.09c-.117-.064-.232-.111-.347-.17-.166-.085-.331-.172-.494-.243-.139-.065-.276-.114-.415-.167-.157-.06-.316-.125-.471-.176-.032-.011-.065-.026-.095-.036-.066-.019-.124-.025-.187-.043-.261-.074-.515-.132-.766-.177-.053-.008-.113-.031-.168-.036s-.1-.006-.154-.012c-.181-.02-.357-.033-.531-.038-.073,0-.15-.013-.223-.013-.034,0-.069.006-.1.009-.145,0-.289.021-.432.035-.083.01-.17.009-.252.024-.026,0-.05.014-.08.019-.13.025-.254.061-.381.095-.084.025-.173.034-.256.064-.02.008-.041.018-.063.029-.125.043-.248.1-.367.157-.08.038-.163.063-.237.105-.034.019-.066.035-.1.055L850.632,818.9c1.579-.729,3.662-.53,5.946.78a11.933,11.933,0,0,1,1.211.8,12.313,12.313,0,0,1-1.541,20.535l-3.483,1.787c-.083,2.676-1.066,4.571-2.629,5.471l34.576-19.825c.1-.055.191-.115.284-.178.037-.025.072-.053.108-.079.053-.039.107-.078.159-.119s.09-.076.135-.115.077-.067.115-.1.1-.1.152-.15Z" transform="translate(-831.241 -802.929)" fill="#f28f2c"/>
                </g>
                <g id="Group_66085" data-name="Group 66085" transform="translate(84.004 19.052)">
                  <g id="Group_66084" data-name="Group 66084" style="mix-blend-mode: normal;isolation: isolate">
                    <g id="Group_66082" data-name="Group 66082" transform="translate(6.227)">
                      <path id="Path_45733" data-name="Path 45733" d="M751.61,902.5c0-7.627,5.332-10.753,11.916-6.976s11.922,13.022,11.922,20.65-5.338,10.743-11.922,6.966S751.61,910.119,751.61,902.5Z" transform="translate(-751.61 -893.919)" fill="#c8b482"/>
                    </g>
                    <path id="Path_45734" data-name="Path 45734" d="M737.263,898.172c.161-.075.321-.153.49-.213.138-.049.284-.083.427-.122.168-.046.334-.094.508-.126.144-.027.294-.038.442-.055.19-.022.381-.044.577-.049a7.481,7.481,0,0,1,.832.016c.046,0,.093.01.14.015a8.833,8.833,0,0,1,.874.133c.057.011.112.019.169.032.313.069.634.161.957.266.207.067.419.153.631.235.185.072.369.138.557.221.216.1.436.212.655.323s.447.218.675.348a17.554,17.554,0,0,1,1.492.975c.141.1.279.208.418.314q.558.425,1.1.9c.128.112.259.22.386.336.22.2.434.415.649.628.162.161.327.318.486.485.217.228.426.467.637.706.144.163.291.321.431.488.412.491.809,1,1.19,1.527.117.161.227.327.341.491.217.313.431.628.637.95.131.205.257.414.383.622.159.264.316.53.467.8.125.224.247.45.366.677q.2.38.389.765.172.351.333.706.176.387.34.777.147.351.284.7c.11.284.214.568.313.853.078.224.155.449.226.674.11.345.208.69.3,1.036.052.193.108.386.155.578.153.627.28,1.252.375,1.872.047.308.08.614.113.92.017.157.041.315.054.471.038.469.059.935.059,1.394,0,3.834-1.351,6.53-3.532,7.781l6.237-3.577c2.181-1.251,3.532-3.947,3.532-7.781,0-.459-.021-.925-.059-1.394-.013-.156-.037-.314-.054-.471-.029-.274-.052-.547-.093-.824,0-.032-.014-.064-.019-.1-.1-.621-.223-1.245-.375-1.872-.012-.05-.018-.1-.03-.151-.036-.143-.086-.285-.124-.428-.094-.345-.191-.69-.3-1.035-.029-.092-.05-.184-.08-.276-.044-.134-.1-.267-.147-.4-.1-.284-.2-.567-.312-.85-.044-.114-.08-.229-.125-.342s-.108-.243-.16-.366q-.164-.39-.339-.775c-.056-.123-.1-.248-.162-.37s-.116-.223-.171-.336c-.126-.257-.255-.512-.389-.765-.066-.126-.125-.256-.194-.381-.055-.1-.117-.2-.172-.3-.151-.27-.307-.535-.467-.8-.079-.131-.15-.267-.231-.4-.048-.077-.1-.149-.152-.226-.2-.322-.418-.636-.635-.948-.087-.126-.167-.258-.256-.383-.028-.038-.059-.073-.087-.111q-.572-.788-1.19-1.526c-.02-.024-.038-.051-.058-.075-.121-.143-.25-.274-.373-.413-.211-.238-.42-.478-.637-.706-.159-.167-.324-.324-.487-.485-.214-.213-.428-.426-.648-.627-.047-.043-.092-.092-.139-.135-.08-.072-.166-.131-.247-.2q-.54-.472-1.1-.9c-.139-.106-.277-.213-.418-.314a17.5,17.5,0,0,0-1.491-.975l-.208-.117c-.158-.087-.311-.151-.467-.23-.219-.112-.439-.228-.655-.324-.188-.084-.371-.149-.556-.221-.211-.082-.423-.168-.631-.235-.042-.014-.085-.034-.126-.047-.281-.088-.558-.158-.831-.219-.057-.013-.111-.02-.168-.031-.166-.033-.333-.069-.5-.093-.128-.019-.253-.028-.379-.041-.047,0-.094-.011-.14-.015-.234-.019-.465-.03-.692-.028-.048,0-.092.01-.14.012-.2.006-.388.028-.578.049-.111.013-.227.011-.336.029-.037.006-.07.02-.106.026-.175.032-.341.081-.509.127-.113.031-.233.048-.343.085-.029.01-.055.026-.084.036-.169.06-.329.138-.49.213-.1.049-.217.084-.318.138l-.129.072-6.237,3.577C736.958,898.3,737.113,898.242,737.263,898.172Z" transform="translate(-733.281 -893.999)" fill="#fbc977"/>
                    <g id="Group_66083" data-name="Group 66083" transform="translate(0 3.595)">
                      <path id="Path_45735" data-name="Path 45735" d="M717.4,922.248c0-7.627,5.332-10.753,11.917-6.976s11.922,13.022,11.922,20.65-5.338,10.743-11.922,6.966S717.4,929.869,717.4,922.248Z" transform="translate(-717.402 -913.669)" fill="#f89d1f"/>
                    </g>
                  </g>
                </g>
                <g id="Group_66088" data-name="Group 66088" transform="translate(58.252 23.68)" style="mix-blend-mode: normal;isolation: isolate">
                  <g id="Group_66086" data-name="Group 66086" transform="translate(25.115 0)">
                    <ellipse id="Ellipse_4302" data-name="Ellipse 4302" cx="7.308" cy="12.618" rx="7.308" ry="12.618" transform="translate(0 7.273) rotate(-29.838)" fill="#c8b482"/>
                  </g>
                  <path id="Path_45736" data-name="Path 45736" d="M623.307,972.592c1.632-.936,2.643-2.954,2.646-5.826,0-.343-.017-.69-.048-1.042-.009-.117-.025-.237-.038-.353-.025-.229-.05-.459-.084-.686-.072-.468-.168-.934-.281-1.4-.036-.144-.077-.286-.116-.432-.069-.259-.143-.517-.225-.775-.055-.17-.112-.338-.172-.507-.074-.212-.15-.425-.232-.637-.068-.174-.138-.353-.214-.527-.082-.2-.167-.389-.253-.58s-.164-.356-.25-.532-.192-.38-.289-.57c-.09-.171-.181-.339-.275-.508-.115-.2-.231-.4-.35-.6-.1-.155-.189-.312-.285-.464-.155-.243-.316-.478-.476-.713-.086-.123-.169-.247-.257-.367-.288-.393-.583-.775-.893-1.142-.1-.126-.215-.247-.325-.368-.155-.178-.31-.355-.472-.526-.119-.126-.243-.244-.366-.365-.159-.157-.319-.319-.483-.467-.095-.089-.194-.17-.292-.253-.118-.1-.235-.205-.354-.3-.155-.124-.31-.248-.466-.365-.1-.079-.206-.161-.312-.238-.365-.26-.736-.509-1.116-.729-.17-.1-.337-.175-.506-.261s-.328-.17-.488-.24c-.141-.062-.281-.112-.419-.165-.156-.063-.314-.128-.469-.179-.1-.028-.186-.05-.283-.075a6.189,6.189,0,0,0-.763-.175c-.108-.02-.217-.037-.323-.052-.181-.02-.356-.029-.53-.033-.108,0-.22-.012-.326-.008a3.969,3.969,0,0,0-.433.038c-.111.013-.223.021-.33.04a3.691,3.691,0,0,0-.381.095c-.109.029-.217.056-.321.091-.127.046-.245.1-.366.161s-.228.1-.336.156l25.122-14.051c.032-.016.063-.036.1-.052.077-.04.162-.068.24-.1.121-.057.24-.115.366-.161a.542.542,0,0,0,.061-.026c.085-.028.174-.042.259-.062a3.117,3.117,0,0,1,.381-.095l.079-.024c.08-.012.168-.011.253-.019.141-.018.284-.032.433-.038.034,0,.066-.008.1-.009.07,0,.147.012.221.016a5.256,5.256,0,0,1,.529.036c.053.008.1,0,.156.009s.113.031.166.038c.251.045.505.1.766.177.063.017.122.021.187.043.032.011.063.025.095.036.155.051.313.116.471.176.139.053.276.1.419.165s.323.159.489.244c.116.059.231.106.347.17l.156.09a12.056,12.056,0,0,1,1.116.729c.106.076.21.156.314.235.067.05.133.1.2.158.211.16.418.334.622.513.058.053.121.1.182.151.035.032.069.067.1.1.165.153.327.312.49.475.12.119.241.235.359.357.166.172.322.355.479.534.094.1.188.2.277.306a.517.517,0,0,1,.044.056c.307.366.6.749.89,1.14.02.031.044.056.066.084.066.092.124.191.189.286.165.234.324.471.48.712.035.059.074.112.111.168.061.1.115.2.173.3.121.2.237.394.347.6.045.076.091.149.133.223.05.094.093.192.145.288.1.188.2.378.289.57.04.084.088.166.128.251s.081.185.12.277c.088.193.172.387.256.582.039.092.083.182.119.272s.06.169.092.253c.084.214.161.427.236.643.036.1.075.2.109.3.023.067.036.136.059.2.084.26.156.521.228.777.026.107.065.214.091.321.01.036.015.074.023.113.115.466.209.935.28,1.4,0,.025.011.048.017.071.029.209.047.411.068.615.012.119.032.238.041.354.028.351.046.7.043,1.043,0,2.871-1.011,4.892-2.643,5.828Z" transform="translate(-604.411 -933.02)" fill="#f9c166"/>
                  <g id="Group_66087" data-name="Group 66087" transform="translate(0 14.047)">
                    <ellipse id="Ellipse_4303" data-name="Ellipse 4303" cx="7.308" cy="12.618" rx="7.308" ry="12.618" transform="translate(0 7.273) rotate(-29.838)" fill="#c8b482"/>
                  </g>
                  <path id="Path_45737" data-name="Path 45737" d="M682.369,1040.46c0,.069.009.139.009.208,0,2.873-1.013,4.89-2.645,5.827l25.12-14.048c1.632-.936,2.645-2.957,2.643-5.828,0-.069,0-.139,0-.208Z" transform="translate(-660.837 -1006.922)" fill="#f28f2c"/>
                </g>
                <g id="Group_66095" data-name="Group 66095" transform="translate(0 25.534)">
                  <g id="Group_66094" data-name="Group 66094">
                    <path id="Path_45738" data-name="Path 45738" d="M331.651,981.949a54.109,54.109,0,0,0,8.09-3.784c14-8.081,17.876-19.806,11.62-29.882a32.024,32.024,0,0,0-11.4-10.408,62.288,62.288,0,0,0-20.352-7.1c-16.8-2.971-35.849-.605-49.2,7.1q-1.092.632-2.1,1.292c-17.147,11.19-16.545,28.293,1.871,39C286.83,987.837,312.555,989.1,331.651,981.949Z" transform="translate(-255.893 -929.532)" fill="#ff8666"/>
                    <path id="Path_45739" data-name="Path 45739" d="M331.651,981.949a54.109,54.109,0,0,0,8.09-3.784c14-8.081,17.876-19.806,11.62-29.882a32.024,32.024,0,0,0-11.4-10.408,62.288,62.288,0,0,0-20.352-7.1c-16.8-2.971-35.849-.605-49.2,7.1q-1.092.632-2.1,1.292c-17.147,11.19-16.545,28.293,1.871,39C286.83,987.837,312.555,989.1,331.651,981.949Z" transform="translate(-255.893 -929.532)" fill="#fbc977"/>
                    <g id="Group_66090" data-name="Group 66090" transform="translate(0 28.35)" style="mix-blend-mode: normal;isolation: isolate">
                      <g id="Group_66089" data-name="Group 66089">
                        <path id="Path_45740" data-name="Path 45740" d="M255.892,1085.565l.02,7.115c.02,7.244,4.78,24.209,14.288,29.734,19.145,11.126,50.289,1.393,69.56-9.733,9.7-5.6,14.538-3.212,14.517-10.549l-.02-16.848c.021,7.336-4.821,14.684-14.517,20.282-19.27,11.126-50.415,11.126-69.56,0-9.508-5.526-14.268-12.758-14.288-20Z" transform="translate(-255.892 -1085.285)" fill="#d69746"/>
                      </g>
                    </g>
                    <g id="Group_66092" data-name="Group 66092" transform="translate(8.697 5.038)">
                      <g id="Group_66091" data-name="Group 66091">
                        <path id="Path_45741" data-name="Path 45741" d="M372.892,964.068c15.743,9.149,15.654,24.033-.187,33.178s-41.537,9.148-57.28,0-15.659-24.03.187-33.178S357.154,954.922,372.892,964.068Zm-3.755,31.1c13.86-8,13.938-21.026.163-29.031s-36.26-8-50.12,0-13.933,21.029-.163,29.031,36.255,8.005,50.12,0Z" transform="translate(-303.675 -957.208)" fill="#f89d1f"/>
                      </g>
                    </g>
                    <g id="Group_66093" data-name="Group 66093" transform="translate(0 28.35)">
                      <path id="Path_45742" data-name="Path 45742" d="M701.985,1105.567c9.7-5.6,14.538-12.945,14.517-20.282l.02,16.848c.021,7.337-4.821,14.684-14.517,20.282-1.051.606-2.143,1.174-3.26,1.714v-16.858C699.855,1106.734,700.94,1106.17,701.985,1105.567Z" transform="translate(-618.137 -1085.285)" fill="#f28f2c"/>
                      <path id="Path_45743" data-name="Path 45743" d="M547.2,1206.076v16.858c-9.715,4.7-21.8,6.9-33.722,6.6v-16.848C525.407,1212.985,537.491,1210.779,547.2,1206.076Z" transform="translate(-466.596 -1184.09)" fill="#f89d1f"/>
                      <path id="Path_45744" data-name="Path 45744" d="M347.723,1203.9c8.652,4.4,19.34,6.736,30.171,7.006v16.848c-10.833-.274-21.522-2.615-30.171-7.016Z" transform="translate(-331.008 -1182.309)" fill="#f9b142"/>
                      <path id="Path_45745" data-name="Path 45745" d="M270.2,1123.674c-9.508-5.525-14.268-12.757-14.288-20l-.02-16.848c.021,7.244,4.78,14.476,14.288,20,.787.458,1.6.889,2.427,1.309v16.838C271.788,1124.556,270.981,1124.128,270.2,1123.674Z" transform="translate(-255.892 -1086.545)" fill="#f9c166"/>
                    </g>
                  </g>
                </g>
                <g id="Group_66096" data-name="Group 66096" transform="translate(27.356 41.253)">
                  <path id="Path_45746" data-name="Path 45746" d="M444.664,1028.085a4.521,4.521,0,0,0-4.1,0l-13.707,7.966a1.256,1.256,0,0,0,.013,2.376l1.84,1.062-3.335,1.938-3.9-2.25-1.942-1.121-4.589,2.667-3.282-1.895,4.589-2.667-2.112-1.219-4.589,2.666-3.28-1.894,4.588-2.667-.468-.27c-5.016-2.9-5.522-6.056-1.654-8.3a12.355,12.355,0,0,1,9.75-.83c-2.284-2-1.636-4.536,1.152-6.157,4.042-2.349,9.637-2.146,14.828.851l.855.494,4.59-2.668,3.28,1.894-4.59,2.668,2.111,1.219,4.59-2.667,3.282,1.895-4.59,2.667,1.942,1.121,3.9,2.25-3.333,1.937Zm-14.932-.653,5.4-3.139-4.421-2.552a5.628,5.628,0,0,0-5.8-.284c-1.743,1.013-1.525,2.31.474,3.464l4.35,2.511Zm-9.478,5.508,5.122-2.977-3.928-2.268a5.392,5.392,0,0,0-5.6-.284c-1.673.972-1.49,2.127.475,3.261l3.928,2.268Z" transform="translate(-406.185 -1015.888)" fill="#f89d1f"/>
                </g>
              </g>
            </g>
          </g>
        </g>
      </g>
    </g>
    <g id="Group_66103" data-name="Group 66103" transform="translate(79.347 68.775)">
      <path id="Path_45749" data-name="Path 45749" d="M1312.515,1489.762l1.1-3.348,3.4,1.12a1.046,1.046,0,0,0,.654-1.987l-3.4-1.12,1.12-3.4a1.046,1.046,0,0,0-1.987-.654l-1.12,3.4-3.348-1.1a1.046,1.046,0,1,0-.654,1.987l3.348,1.1-1.1,3.348a1.046,1.046,0,1,0,1.987.654Z" transform="translate(-1195.485 -1341.5)" fill="#aec7e6"/>
    </g>
    <g id="Group_66132" data-name="Group 66132" transform="translate(24.648 0.028)">
      <g id="Group_66112" data-name="Group 66112" transform="translate(0 0)">
        <g id="Group_66110" data-name="Group 66110" transform="translate(0)">
          <g id="Group_66104" data-name="Group 66104" transform="translate(1.284 1.161)">
            <path id="Path_45750" data-name="Path 45750" d="M410.458,361.044c-3.022,3.645-7.627,4.814-10.284,2.61s-2.36-6.945.662-10.59,7.627-4.814,10.284-2.61S413.48,357.4,410.458,361.044Zm-9.581,1.762c2.316,1.921,6.329.9,8.963-2.274s2.893-7.309.577-9.23-6.329-.9-8.963,2.275-2.892,7.309-.577,9.229Z" transform="translate(-398.359 -349.341)" fill="#f89d1f"/>
          </g>
          <g id="Group_66105" data-name="Group 66105" transform="translate(8.407 6.517)">
            <path id="Path_45751" data-name="Path 45751" d="M437.743,379.137c-.347.418-.331.8.025,1.1l.712.59,1.063-1.282-.712-.59C438.476,378.656,438.09,378.719,437.743,379.137Z" transform="translate(-437.492 -378.768)" fill="#fbc977"/>
          </g>
          <g id="Group_66106" data-name="Group 66106" transform="translate(2.22 2.152)">
            <path id="Path_45752" data-name="Path 45752" d="M414.046,364.983c-2.634,3.177-6.647,4.2-8.963,2.274s-2.058-6.052.576-9.229,6.647-4.2,8.963-2.275S416.681,361.806,414.046,364.983Zm-7.383-.958.155.128-.952,1.148.594.493.952-1.148.383.317-.952,1.148.595.493.952-1.148.352.292.707.586.691-.834-.334-.277a.6.6,0,0,1,.051-.821l2.844-3.429a.6.6,0,0,1,.8-.2l.334.277.692-.834-.707-.586-.352-.292.952-1.148-.595-.493-.952,1.148-.383-.317.952-1.148-.594-.493-.952,1.148-.085-.07a1.832,1.832,0,0,0-2.765.385,1.81,1.81,0,0,0-.4,2.022,2.187,2.187,0,0,0-1.98,3.655Z" transform="translate(-403.502 -354.783)" fill="#fbc977"/>
          </g>
          <g id="Group_66107" data-name="Group 66107">
            <path id="Path_45753" data-name="Path 45753" d="M405.4,356.6c-3.522,4.247-8.886,5.609-11.983,3.041s-2.751-8.091.771-12.338,8.887-5.609,11.983-3.042S408.924,352.351,405.4,356.6Zm-11,1.838c2.657,2.2,7.262,1.034,10.284-2.61s3.319-8.386.661-10.59-7.261-1.035-10.284,2.61-3.319,8.386-.662,10.59Z" transform="translate(-391.306 -342.962)" fill="#fbc977"/>
          </g>
          <g id="Group_66108" data-name="Group 66108" transform="translate(6.287 8.824)">
            <path id="Path_45754" data-name="Path 45754" d="M427.262,391.626a.767.767,0,0,0-1.156.2c-.361.436-.339.836.023,1.137l.8.664,1.12-1.351Z" transform="translate(-425.845 -391.442)" fill="#fbc977"/>
          </g>
          <g id="Group_66109" data-name="Group 66109" transform="translate(4.584 4.254)">
            <path id="Path_45755" data-name="Path 45755" d="M417.289,373.472l.155.128-.952,1.148.594.493.952-1.148.383.317-.952,1.148.595.493.952-1.148.352.292.707.586.691-.834-.334-.277a.6.6,0,0,1,.051-.821l2.844-3.429a.6.6,0,0,1,.8-.2l.334.277.692-.834-1.058-.878.952-1.148-.595-.493-.952,1.148-.383-.317.952-1.148-.594-.493-.952,1.148-.085-.07a1.832,1.832,0,0,0-2.765.385,1.809,1.809,0,0,0-.4,2.022,2.187,2.187,0,0,0-1.98,3.655Zm4.014-2.822-.712-.59c-.356-.3-.372-.677-.025-1.1s.732-.481,1.088-.186l.712.59L421.3,370.65Zm-2.825,1.777c-.362-.3-.384-.7-.023-1.137a.767.767,0,0,1,1.156-.2l.788.654-1.121,1.351-.8-.664Z" transform="translate(-416.492 -366.332)" fill="#f89d1f"/>
          </g>
        </g>
        <g id="Group_66111" data-name="Group 66111" transform="translate(2.114 1.297)">
          <path id="Path_45756" data-name="Path 45756" d="M468.477,392.591c.071-.086.141-.173.21-.26l.054-.069q.09-.116.178-.233l.025-.033q.1-.131.191-.264l.048-.068q.078-.112.153-.224l.035-.052q.088-.133.172-.268l.039-.064q.069-.112.135-.224l.037-.063q.079-.135.155-.272l.03-.055q.063-.115.122-.23l.036-.07c.047-.092.093-.184.137-.276l.019-.039q.058-.122.113-.244l.033-.073c.041-.093.082-.186.121-.28l0-.009c.038-.091.074-.182.109-.273l.028-.074q.048-.127.093-.254l.011-.03c.033-.093.063-.186.093-.28l.023-.072q.037-.118.071-.237l.015-.051q.04-.139.075-.278l.017-.067q.029-.115.055-.23l.014-.062q.03-.138.057-.276l.011-.058,0-.016,1.442,1.2,0,.016-.011.058c-.018.092-.037.183-.057.275l-.014.063q-.026.115-.055.229l-.017.067c-.024.092-.049.185-.075.278l-.015.051q-.034.118-.072.237l-.023.072q-.045.14-.093.28l-.011.03c-.03.084-.061.169-.093.253l-.028.075c-.035.091-.071.182-.108.272l0,.009q-.058.14-.121.279l-.033.074q-.055.122-.113.244l-.019.039q-.067.138-.137.276l-.036.07q-.06.115-.122.229l-.03.056q-.075.137-.155.272l-.037.062q-.066.113-.136.224l-.04.064q-.084.135-.172.268l-.035.052q-.075.112-.153.224l-.048.068q-.093.132-.19.264l-.025.033q-.087.117-.178.233l-.054.069c-.069.087-.138.174-.21.26l-.06.071-1.442-1.2Z" transform="translate(-456.495 -380.253)" fill="#f9b953"/>
          <path id="Path_45757" data-name="Path 45757" d="M474.972,356.587c0-.023.008-.046.011-.069q.022-.137.039-.274c0-.014,0-.028,0-.043q.015-.119.026-.236c0-.024,0-.048.007-.071.008-.091.016-.181.021-.271,0-.005,0-.01,0-.016.005-.086.009-.171.011-.255,0-.024,0-.048,0-.071q0-.124,0-.246c0-.007,0-.015,0-.023,0-.088,0-.176-.006-.263,0-.023,0-.045,0-.068q0-.112-.013-.223c0-.015,0-.029,0-.044-.007-.086-.015-.171-.024-.256,0-.021,0-.042-.007-.062q-.013-.105-.028-.209c0-.018-.005-.037-.008-.055-.013-.083-.027-.165-.043-.247,0-.018-.007-.036-.011-.054q-.02-.1-.043-.2l-.014-.06q-.028-.121-.061-.24l-.011-.04q-.029-.1-.06-.2l-.022-.069c-.012-.036-.024-.072-.037-.108l-.028-.08c-.013-.036-.027-.073-.041-.109s-.019-.051-.029-.076-.031-.076-.047-.114l-.029-.068c-.019-.044-.039-.087-.059-.13l-.022-.049q-.042-.088-.086-.175l-.019-.036c-.024-.045-.047-.09-.072-.135l-.035-.061c-.02-.036-.041-.072-.062-.107l-.042-.067-.062-.1-.046-.068-.063-.092-.049-.068-.065-.088-.052-.067-.068-.086-.054-.066-.072-.083-.055-.063-.077-.083-.056-.059-.083-.083-.055-.054-.1-.089-.048-.044q-.073-.065-.149-.128h0l1.442,1.2q.076.063.149.128l.048.044.1.089.055.054.083.083.056.06.076.082.056.063.072.083.054.066.068.085.052.068.065.088.049.069.063.092.046.068.061.1.042.067c.021.035.042.071.062.106l.035.061c.025.044.048.089.072.134l.02.037q.045.087.086.175l.022.049c.02.043.039.086.058.129l.029.068c.016.038.032.075.047.113l.029.076.041.108.028.08c.012.036.025.071.037.107l.011.034.01.035q.032.1.06.2l.011.04q.033.119.061.239l.014.06q.023.1.043.2l.011.054q.023.123.042.247c0,.018.005.037.008.055.01.069.019.139.028.209,0,.021.005.042.007.062q.014.127.024.255c0,.015,0,.03,0,.044q.008.111.013.222c0,.023,0,.046,0,.068,0,.087.005.175.006.263,0,.007,0,.015,0,.023,0,.082,0,.164,0,.246,0,.024,0,.047,0,.071,0,.085-.006.17-.011.255,0,.005,0,.011,0,.016-.005.09-.013.181-.021.271,0,.024,0,.048-.007.071q-.012.118-.026.236c0,.014,0,.028-.005.043-.012.091-.025.182-.039.273l-.011.069q-.017.106-.037.213l-1.442-1.2Q474.954,356.694,474.972,356.587Z" transform="translate(-460.231 -350.088)" fill="#f9c166"/>
          <path id="Path_45758" data-name="Path 45758" d="M442.891,421.762l.121-.053.079-.036.115-.053.082-.039.112-.054.082-.041.112-.057.081-.042.114-.061.078-.043.119-.067.072-.041.137-.08.053-.031.189-.116.04-.026.147-.094.068-.045.119-.08.075-.052.111-.078.078-.055.107-.078.078-.058.106-.08.077-.059.107-.084.075-.06.109-.089.071-.058.12-.1.058-.049.176-.155.007-.006c.056-.05.112-.1.167-.153l.057-.054.11-.1q.121-.117.241-.238l.054-.055q.11-.112.218-.228l.027-.029c.078-.084.156-.17.233-.257l.054-.062c.057-.066.114-.132.17-.2l1.442,1.2c-.056.067-.113.134-.17.2l-.054.062q-.115.13-.233.257l-.027.029q-.108.116-.218.228l-.054.055q-.12.121-.241.238l-.013.013-.1.091-.057.054-.167.153-.007.006q-.088.079-.176.155l-.058.049-.12.1-.071.058-.109.089-.075.06-.106.083-.078.06-.106.08-.078.058-.107.078-.078.055-.111.077-.075.052-.12.08-.067.045-.147.094-.042.027-.189.116-.053.031-.137.08-.073.041-.118.066-.079.043-.113.061-.081.042-.112.057-.082.041-.112.054-.082.039-.114.053-.08.036-.12.052-.048.021-1.442-1.2Z" transform="translate(-435.576 -405.855)" fill="#f8ab37"/>
          <path id="Path_45759" data-name="Path 45759" d="M403.058,434.7l.047.036.1.071.057.04.089.062.062.041.087.056.064.039.088.052.066.037.09.05.066.035.094.048.064.031.1.048.057.026.13.056.032.013.165.064.048.017.119.042.064.021.105.033.07.02.1.029.073.019.1.025.074.017.1.022.075.015.1.019.073.013.111.017.068.01.13.016.05.006.182.017.037,0,.146.009.066,0,.119,0h.265l.109,0,.08,0,.109,0,.081,0,.111-.008.079-.006.116-.011.074-.007.129-.015.062-.008.192-.028h0l.19-.032.064-.012.129-.025.076-.016.118-.026.08-.019.114-.027.083-.021.112-.03.083-.023.114-.033.082-.024.117-.037.078-.025.125-.042.07-.024.158-.057.037-.013.194-.075.056-.023.138-.057.026-.011,1.442,1.2-.026.011-.138.057-.056.023-.194.075-.038.014-.156.057-.07.024-.125.042-.078.025-.116.037-.082.024-.113.033-.083.023-.112.03-.083.021-.114.027-.081.019-.118.026-.076.016-.128.025-.065.012-.189.032h0l-.192.027-.062.008-.129.016-.075.007-.116.011-.079.006-.111.008-.081,0-.109,0-.081,0-.109,0h-.265l-.118,0-.066,0-.146-.01-.038,0-.182-.017-.05-.006-.13-.016-.068-.01-.111-.017-.073-.013-.1-.019-.075-.015-.1-.022-.074-.017-.1-.025-.073-.019-.1-.028-.07-.02-.105-.033-.064-.021-.119-.042-.047-.017q-.083-.031-.165-.064l-.032-.013-.131-.056-.057-.026-.1-.048-.064-.031-.094-.048-.066-.035-.09-.05-.065-.037-.088-.052-.064-.039-.087-.056-.062-.041-.089-.062-.057-.04-.1-.072-.047-.035q-.071-.055-.14-.112l-1.442-1.2Q402.987,434.64,403.058,434.7Z" transform="translate(-402.918 -419.203)" fill="#f89d1f"/>
        </g>
      </g>
      <g id="Group_66122" data-name="Group 66122" transform="translate(258.075 44.268)">
        <g id="Group_66120" data-name="Group 66120" transform="translate(2.47)">
          <g id="Group_66113" data-name="Group 66113" transform="translate(4.886 11.018)">
            <path id="Path_45760" data-name="Path 45760" d="M1658.126,679.809c-.385-.29-.692-.138-.814.431a1.238,1.238,0,0,0,.424,1.324l.852.641.376-1.765Z" transform="translate(-1657.272 -679.665)" fill="#fbc977"/>
          </g>
          <g id="Group_66118" data-name="Group 66118">
            <g id="Group_66114" data-name="Group 66114" transform="translate(0.919 1.415)">
              <path id="Path_45761" data-name="Path 45761" d="M1646.032,640.2c-1.014,4.761-4.127,6.9-6.953,4.771s-4.295-7.712-3.281-12.473,4.127-6.9,6.953-4.771S1647.047,635.439,1646.032,640.2Zm-6.717,3.663c2.463,1.854,5.176-.008,6.06-4.158s-.4-9.018-2.859-10.871-5.176.008-6.06,4.159.4,9.017,2.86,10.871Z" transform="translate(-1635.478 -626.904)" fill="#f89d1f"/>
            </g>
            <g id="Group_66115" data-name="Group 66115" transform="translate(3.612 4.965)">
              <path id="Path_45762" data-name="Path 45762" d="M1651.268,648.752c.269-1.264,1.016-1.64,1.983-.913l.09.068.319-1.5.632.476-.32,1.5.407.306.32-1.5.632.476-.319,1.5.374.282.751.565-.232,1.09-.355-.267c-.219-.165-.46,0-.539.37l-.954,4.48a1.038,1.038,0,0,0,.255.967l.354.267-.232,1.089-.751-.565-.374-.282-.319,1.5-.633-.476.319-1.5-.407-.306-.319,1.5-.632-.476.319-1.5-.165-.124a3.253,3.253,0,0,1-1.112-3.361c.194-.911.727-1.461,1.323-1.238A3.1,3.1,0,0,1,1651.268,648.752Zm.743,5.607.852.641.376-1.765-.838-.631c-.385-.29-.692-.138-.813.431a1.237,1.237,0,0,0,.424,1.324Zm1.888-4.222-.757-.57c-.378-.285-.651-.147-.768.4a1.185,1.185,0,0,0,.411,1.274l.757.57.356-1.674Z" transform="translate(-1650.273 -646.407)" fill="#f89d1f"/>
            </g>
            <g id="Group_66116" data-name="Group 66116">
              <path id="Path_45763" data-name="Path 45763" d="M1642.725,634.624c-1.181,5.548-4.808,8.037-8.1,5.559s-5-8.985-3.823-14.533,4.809-8.038,8.1-5.559S1643.907,629.075,1642.725,634.624Zm-7.777,3.99c2.826,2.127,5.939-.01,6.953-4.771s-.455-10.346-3.281-12.474-5.939.009-6.953,4.771.455,10.347,3.281,12.473Z" transform="translate(-1630.427 -619.131)" fill="#fbc977"/>
            </g>
            <g id="Group_66117" data-name="Group 66117" transform="translate(1.618 2.628)">
              <path id="Path_45764" data-name="Path 45764" d="M1648.515,645.158c-.884,4.15-3.6,6.012-6.06,4.158s-3.743-6.721-2.859-10.871,3.6-6.012,6.06-4.159S1649.4,641.007,1648.515,645.158Zm-6,.119.165.124-.319,1.5.632.476.319-1.5.407.306-.319,1.5.633.476.32-1.5.374.282.751.565.232-1.089-.354-.267a1.037,1.037,0,0,1-.254-.967l.954-4.48c.079-.369.32-.534.539-.37l.355.267.232-1.09-.751-.565-.374-.282.319-1.5-.632-.476-.319,1.5-.407-.306.319-1.5-.632-.476-.319,1.5-.09-.068c-.967-.727-1.714-.351-1.983.913a3.1,3.1,0,0,0,.416,2.428c-.6-.223-1.128.326-1.323,1.238a3.253,3.253,0,0,0,1.112,3.361Z" transform="translate(-1639.316 -633.569)" fill="#fbc977"/>
            </g>
          </g>
          <g id="Group_66119" data-name="Group 66119" transform="translate(5.674 7.981)">
            <path id="Path_45765" data-name="Path 45765" d="M1661.639,663.521a1.184,1.184,0,0,0,.411,1.274l.757.57.357-1.674-.757-.57C1662.029,662.836,1661.756,662.974,1661.639,663.521Z" transform="translate(-1661.601 -662.976)" fill="#fbc977"/>
          </g>
        </g>
        <g id="Group_66121" data-name="Group 66121" transform="translate(0 0.007)">
          <path id="Path_45766" data-name="Path 45766" d="M1631.127,721.811l.054.087.071.111.053.082c.034.053.07.1.1.156l.032.048q.069.1.14.2l.027.036q.067.09.135.177l.047.06q.067.085.136.168l.032.039.042.049.086.1.05.056.081.089.054.057.081.084.054.056.068.067.1.092.064.059.1.089.062.054.11.092.053.044q.082.066.166.129a4.25,4.25,0,0,0,2.846.952l-2.47.16a4.252,4.252,0,0,1-2.847-.952q-.083-.063-.166-.13l-.053-.044-.11-.092-.062-.054-.1-.089-.063-.059-.1-.092-.037-.036-.031-.031-.055-.055-.08-.084-.054-.057-.081-.089-.05-.056-.087-.1-.042-.049-.009-.01-.023-.028q-.069-.083-.136-.169l-.047-.06q-.068-.087-.135-.177l-.021-.027-.006-.009q-.071-.1-.14-.2l-.032-.048q-.053-.077-.1-.156l-.017-.024-.037-.057-.071-.111-.054-.087-.061-.1,2.47-.16Z" transform="translate(-1626.46 -703.046)" fill="#f89d1f"/>
          <path id="Path_45767" data-name="Path 45767" d="M1620.282,624.738c.015-.051.031-.1.047-.152s.04-.131.061-.2l.012-.04c.015-.045.031-.089.046-.134s.033-.1.05-.146.042-.116.063-.173.034-.094.052-.139l.01-.028c.026-.068.053-.134.08-.2l.025-.062q.057-.137.116-.27l.006-.012.027-.058c.032-.07.064-.14.1-.208l.043-.089c.016-.032.031-.065.047-.1l.042-.082.039-.076q.057-.108.115-.213l.016-.029,0-.007c.042-.075.086-.149.13-.221l.036-.058.046-.075c.023-.037.047-.074.071-.11l.025-.038c.039-.06.079-.119.119-.177l.022-.032.032-.044q.065-.091.132-.18l.019-.025.008-.01c.047-.061.094-.12.141-.178l.034-.042.04-.048q.056-.066.113-.13l.013-.014.092-.1.058-.061.03-.031c.044-.045.089-.09.134-.133l.025-.023.032-.03c.054-.051.108-.1.163-.148l0,0h0c.055-.048.111-.094.167-.139l.035-.027.031-.024c.046-.035.091-.069.137-.1l.03-.021.071-.05.089-.059.024-.016c.045-.029.091-.057.136-.084l.038-.022.04-.023c.059-.034.119-.066.178-.1h0l0,0c.059-.03.119-.058.178-.084l.045-.02.042-.019c.048-.02.1-.039.143-.057h0c.047-.018.094-.034.141-.05l.042-.013.053-.017q.078-.024.156-.044l.036-.009.013,0c.06-.015.121-.027.182-.039l.047-.008.109-.019.046-.006.047-.006c.064-.008.129-.014.193-.018l2.47-.16c-.065,0-.129.011-.193.018l-.047.006c-.052.007-.1.015-.155.024l-.047.008q-.1.018-.195.043l-.036.009c-.052.014-.1.028-.157.044l-.053.016c-.062.02-.123.04-.184.063h0c-.062.023-.124.049-.186.076l-.045.02c-.06.027-.119.054-.178.084l0,0c-.06.031-.12.063-.18.1l-.04.023c-.058.034-.117.069-.174.106l-.024.016c-.054.035-.106.071-.159.108l-.03.021c-.056.041-.112.083-.168.127l-.034.027c-.057.046-.113.092-.169.141l0,0c-.055.048-.109.1-.163.148l-.032.03q-.08.076-.158.157l-.03.031q-.076.079-.15.162l-.013.014c-.052.058-.1.118-.153.179l-.034.042c-.05.061-.1.124-.149.188l-.019.025q-.067.088-.132.18l-.031.044q-.072.1-.142.208l-.025.038q-.059.091-.117.185l-.036.059c-.045.075-.09.151-.133.228l-.016.03q-.058.1-.115.213l-.039.076c-.03.059-.06.118-.09.178l-.043.089c-.033.068-.065.138-.1.208l-.027.058q-.062.139-.121.282l-.025.062c-.031.075-.061.151-.09.228-.018.046-.034.093-.052.139s-.043.115-.063.173-.033.1-.05.146-.039.115-.058.174-.041.13-.061.2-.031.1-.047.152-.025.087-.037.13l-2.47.16C1620.257,624.824,1620.269,624.781,1620.282,624.738Z" transform="translate(-1619.629 -619.172)" fill="#f9c166"/>
          <path id="Path_45768" data-name="Path 45768" d="M1617.049,657.056c0-.013,0-.026-.005-.039q-.024-.174-.046-.35c0-.013,0-.026-.005-.04s0-.012,0-.018q-.022-.185-.04-.372c0-.012,0-.025,0-.037s0-.029,0-.044q-.018-.191-.032-.384v-.006c0-.006,0-.013,0-.019-.01-.134-.018-.268-.025-.4,0-.013,0-.026,0-.039v-.018c-.007-.146-.012-.293-.016-.439,0-.013,0-.026,0-.039v-.045q0-.079,0-.158c0-.04,0-.081,0-.121s0-.109,0-.163c0-.03,0-.06,0-.091,0-.006,0-.012,0-.019,0-.132,0-.264.008-.4,0-.027,0-.053,0-.08q.007-.2.018-.4v-.018c0-.023,0-.046,0-.069q.006-.106.014-.211c0-.036.006-.073.008-.109.005-.066.011-.132.017-.2,0-.036.006-.072.01-.108.007-.072.014-.144.022-.215,0-.029.006-.057.009-.085.011-.1.023-.2.036-.3v-.007l.007-.051q.015-.116.032-.232c0-.034.01-.068.016-.1.01-.063.019-.125.03-.188.006-.037.013-.075.019-.112q.015-.09.032-.179c.007-.037.014-.075.021-.112q.018-.092.036-.184l.014-.073.014-.068q.041-.192.086-.379c.01-.042.021-.084.031-.125.02-.082.04-.164.062-.244l.006-.023c.011-.043.024-.084.035-.126l.022-.077,2.47-.16-.022.077c-.014.05-.028.1-.042.149-.021.08-.042.162-.062.244-.01.042-.021.083-.032.125q-.044.187-.086.379c-.01.047-.019.094-.029.141s-.025.122-.036.184c-.007.037-.014.074-.021.112-.011.06-.022.119-.032.179-.006.037-.013.074-.019.112q-.015.094-.03.188c-.005.034-.011.068-.016.1-.011.077-.022.155-.033.232l-.008.058q-.019.149-.036.3c0,.028-.006.057-.009.085-.008.072-.015.144-.022.216,0,.036-.007.072-.01.108q-.009.1-.017.2c0,.036-.006.073-.008.109q-.007.106-.014.211c0,.029,0,.058-.006.087-.007.132-.013.264-.018.4,0,.027,0,.053,0,.08,0,.132-.007.264-.008.4,0,.036,0,.073,0,.109q0,.082,0,.163c0,.04,0,.081,0,.121s0,.106,0,.158c0,.028,0,.056,0,.084q.005.22.016.439c0,.019,0,.038,0,.057q.01.2.024.4c0,.009,0,.017,0,.025.01.128.021.256.032.384l.008.081q.018.186.04.372c0,.019,0,.038.007.057.014.117.029.234.045.35l.007.051-2.47.16Z" transform="translate(-1616.86 -644.05)" fill="#f9b953"/>
          <path id="Path_45769" data-name="Path 45769" d="M1619.82,695.725l-.03-.051-.057-.1-.056-.1-.056-.1-.027-.048-.014-.027q-.093-.172-.181-.349l-.013-.024-.015-.031q-.083-.169-.162-.342l-.009-.018-.014-.032q-.08-.177-.156-.358l0-.006-.007-.018q-.072-.174-.141-.352l-.011-.027,0-.012q-.067-.175-.13-.353l-.013-.036-.01-.03q-.061-.174-.119-.352l-.008-.025-.012-.038c-.039-.123-.078-.246-.115-.371v0l0-.012q-.054-.183-.1-.37l-.01-.037-.005-.02q-.049-.183-.094-.369c0-.012-.006-.023-.009-.035l-.009-.038q-.045-.187-.086-.376l0-.016c0-.012,0-.024-.007-.036q-.038-.18-.073-.361l-.006-.031,0-.012q-.035-.189-.067-.38l-.007-.04c0-.012,0-.025-.006-.037q-.03-.185-.057-.371v-.006l2.47-.16v.006q.026.186.057.371l.013.078q.032.191.067.38l.008.044q.035.181.073.361l.011.053q.041.189.086.376c.006.024.011.049.018.073q.045.186.094.369l.015.057q.05.186.1.37l0,.016c.037.125.075.248.115.371l.02.063q.057.178.119.352l.023.066q.063.179.13.354l.015.039q.069.178.141.352l.01.024c.051.121.1.24.156.358l.023.05q.079.173.162.342l.027.055q.088.177.181.349l.041.075.056.1.056.1.057.1.055.093.007.011-2.47.16-.007-.011Z" transform="translate(-1617.716 -676.955)" fill="#f8ab37"/>
        </g>
      </g>
      <g id="Group_66133" data-name="Group 66133" transform="translate(279.075 185.538)">
        <g id="Group_66120-2" data-name="Group 66120" transform="translate(2.47)">
          <g id="Group_66113-2" data-name="Group 66113" transform="translate(4.886 11.018)">
            <path id="Path_45760-2" data-name="Path 45760" d="M1658.126,679.809c-.385-.29-.692-.138-.814.431a1.238,1.238,0,0,0,.424,1.324l.852.641.376-1.765Z" transform="translate(-1657.272 -679.665)" fill="#fbc977"/>
          </g>
          <g id="Group_66118-2" data-name="Group 66118">
            <g id="Group_66114-2" data-name="Group 66114" transform="translate(0.919 1.415)">
              <path id="Path_45761-2" data-name="Path 45761" d="M1646.032,640.2c-1.014,4.761-4.127,6.9-6.953,4.771s-4.295-7.712-3.281-12.473,4.127-6.9,6.953-4.771S1647.047,635.439,1646.032,640.2Zm-6.717,3.663c2.463,1.854,5.176-.008,6.06-4.158s-.4-9.018-2.859-10.871-5.176.008-6.06,4.159.4,9.017,2.86,10.871Z" transform="translate(-1635.478 -626.904)" fill="#f89d1f"/>
            </g>
            <g id="Group_66115-2" data-name="Group 66115" transform="translate(3.612 4.965)">
              <path id="Path_45762-2" data-name="Path 45762" d="M1651.268,648.752c.269-1.264,1.016-1.64,1.983-.913l.09.068.319-1.5.632.476-.32,1.5.407.306.32-1.5.632.476-.319,1.5.374.282.751.565-.232,1.09-.355-.267c-.219-.165-.46,0-.539.37l-.954,4.48a1.038,1.038,0,0,0,.255.967l.354.267-.232,1.089-.751-.565-.374-.282-.319,1.5-.633-.476.319-1.5-.407-.306-.319,1.5-.632-.476.319-1.5-.165-.124a3.253,3.253,0,0,1-1.112-3.361c.194-.911.727-1.461,1.323-1.238A3.1,3.1,0,0,1,1651.268,648.752Zm.743,5.607.852.641.376-1.765-.838-.631c-.385-.29-.692-.138-.813.431a1.237,1.237,0,0,0,.424,1.324Zm1.888-4.222-.757-.57c-.378-.285-.651-.147-.768.4a1.185,1.185,0,0,0,.411,1.274l.757.57.356-1.674Z" transform="translate(-1650.273 -646.407)" fill="#f89d1f"/>
            </g>
            <g id="Group_66116-2" data-name="Group 66116">
              <path id="Path_45763-2" data-name="Path 45763" d="M1642.725,634.624c-1.181,5.548-4.808,8.037-8.1,5.559s-5-8.985-3.823-14.533,4.809-8.038,8.1-5.559S1643.907,629.075,1642.725,634.624Zm-7.777,3.99c2.826,2.127,5.939-.01,6.953-4.771s-.455-10.346-3.281-12.474-5.939.009-6.953,4.771.455,10.347,3.281,12.473Z" transform="translate(-1630.427 -619.131)" fill="#fbc977"/>
            </g>
            <g id="Group_66117-2" data-name="Group 66117" transform="translate(1.618 2.628)">
              <path id="Path_45764-2" data-name="Path 45764" d="M1648.515,645.158c-.884,4.15-3.6,6.012-6.06,4.158s-3.743-6.721-2.859-10.871,3.6-6.012,6.06-4.159S1649.4,641.007,1648.515,645.158Zm-6,.119.165.124-.319,1.5.632.476.319-1.5.407.306-.319,1.5.633.476.32-1.5.374.282.751.565.232-1.089-.354-.267a1.037,1.037,0,0,1-.254-.967l.954-4.48c.079-.369.32-.534.539-.37l.355.267.232-1.09-.751-.565-.374-.282.319-1.5-.632-.476-.319,1.5-.407-.306.319-1.5-.632-.476-.319,1.5-.09-.068c-.967-.727-1.714-.351-1.983.913a3.1,3.1,0,0,0,.416,2.428c-.6-.223-1.128.326-1.323,1.238a3.253,3.253,0,0,0,1.112,3.361Z" transform="translate(-1639.316 -633.569)" fill="#fbc977"/>
            </g>
          </g>
          <g id="Group_66119-2" data-name="Group 66119" transform="translate(5.674 7.981)">
            <path id="Path_45765-2" data-name="Path 45765" d="M1661.639,663.521a1.184,1.184,0,0,0,.411,1.274l.757.57.357-1.674-.757-.57C1662.029,662.836,1661.756,662.974,1661.639,663.521Z" transform="translate(-1661.601 -662.976)" fill="#fbc977"/>
          </g>
        </g>
        <g id="Group_66121-2" data-name="Group 66121" transform="translate(0 0.007)">
          <path id="Path_45766-2" data-name="Path 45766" d="M1631.127,721.811l.054.087.071.111.053.082c.034.053.07.1.1.156l.032.048q.069.1.14.2l.027.036q.067.09.135.177l.047.06q.067.085.136.168l.032.039.042.049.086.1.05.056.081.089.054.057.081.084.054.056.068.067.1.092.064.059.1.089.062.054.11.092.053.044q.082.066.166.129a4.25,4.25,0,0,0,2.846.952l-2.47.16a4.252,4.252,0,0,1-2.847-.952q-.083-.063-.166-.13l-.053-.044-.11-.092-.062-.054-.1-.089-.063-.059-.1-.092-.037-.036-.031-.031-.055-.055-.08-.084-.054-.057-.081-.089-.05-.056-.087-.1-.042-.049-.009-.01-.023-.028q-.069-.083-.136-.169l-.047-.06q-.068-.087-.135-.177l-.021-.027-.006-.009q-.071-.1-.14-.2l-.032-.048q-.053-.077-.1-.156l-.017-.024-.037-.057-.071-.111-.054-.087-.061-.1,2.47-.16Z" transform="translate(-1626.46 -703.046)" fill="#f89d1f"/>
          <path id="Path_45767-2" data-name="Path 45767" d="M1620.282,624.738c.015-.051.031-.1.047-.152s.04-.131.061-.2l.012-.04c.015-.045.031-.089.046-.134s.033-.1.05-.146.042-.116.063-.173.034-.094.052-.139l.01-.028c.026-.068.053-.134.08-.2l.025-.062q.057-.137.116-.27l.006-.012.027-.058c.032-.07.064-.14.1-.208l.043-.089c.016-.032.031-.065.047-.1l.042-.082.039-.076q.057-.108.115-.213l.016-.029,0-.007c.042-.075.086-.149.13-.221l.036-.058.046-.075c.023-.037.047-.074.071-.11l.025-.038c.039-.06.079-.119.119-.177l.022-.032.032-.044q.065-.091.132-.18l.019-.025.008-.01c.047-.061.094-.12.141-.178l.034-.042.04-.048q.056-.066.113-.13l.013-.014.092-.1.058-.061.03-.031c.044-.045.089-.09.134-.133l.025-.023.032-.03c.054-.051.108-.1.163-.148l0,0h0c.055-.048.111-.094.167-.139l.035-.027.031-.024c.046-.035.091-.069.137-.1l.03-.021.071-.05.089-.059.024-.016c.045-.029.091-.057.136-.084l.038-.022.04-.023c.059-.034.119-.066.178-.1h0l0,0c.059-.03.119-.058.178-.084l.045-.02.042-.019c.048-.02.1-.039.143-.057h0c.047-.018.094-.034.141-.05l.042-.013.053-.017q.078-.024.156-.044l.036-.009.013,0c.06-.015.121-.027.182-.039l.047-.008.109-.019.046-.006.047-.006c.064-.008.129-.014.193-.018l2.47-.16c-.065,0-.129.011-.193.018l-.047.006c-.052.007-.1.015-.155.024l-.047.008q-.1.018-.195.043l-.036.009c-.052.014-.1.028-.157.044l-.053.016c-.062.02-.123.04-.184.063h0c-.062.023-.124.049-.186.076l-.045.02c-.06.027-.119.054-.178.084l0,0c-.06.031-.12.063-.18.1l-.04.023c-.058.034-.117.069-.174.106l-.024.016c-.054.035-.106.071-.159.108l-.03.021c-.056.041-.112.083-.168.127l-.034.027c-.057.046-.113.092-.169.141l0,0c-.055.048-.109.1-.163.148l-.032.03q-.08.076-.158.157l-.03.031q-.076.079-.15.162l-.013.014c-.052.058-.1.118-.153.179l-.034.042c-.05.061-.1.124-.149.188l-.019.025q-.067.088-.132.18l-.031.044q-.072.1-.142.208l-.025.038q-.059.091-.117.185l-.036.059c-.045.075-.09.151-.133.228l-.016.03q-.058.1-.115.213l-.039.076c-.03.059-.06.118-.09.178l-.043.089c-.033.068-.065.138-.1.208l-.027.058q-.062.139-.121.282l-.025.062c-.031.075-.061.151-.09.228-.018.046-.034.093-.052.139s-.043.115-.063.173-.033.1-.05.146-.039.115-.058.174-.041.13-.061.2-.031.1-.047.152-.025.087-.037.13l-2.47.16C1620.257,624.824,1620.269,624.781,1620.282,624.738Z" transform="translate(-1619.629 -619.172)" fill="#f9c166"/>
          <path id="Path_45768-2" data-name="Path 45768" d="M1617.049,657.056c0-.013,0-.026-.005-.039q-.024-.174-.046-.35c0-.013,0-.026-.005-.04s0-.012,0-.018q-.022-.185-.04-.372c0-.012,0-.025,0-.037s0-.029,0-.044q-.018-.191-.032-.384v-.006c0-.006,0-.013,0-.019-.01-.134-.018-.268-.025-.4,0-.013,0-.026,0-.039v-.018c-.007-.146-.012-.293-.016-.439,0-.013,0-.026,0-.039v-.045q0-.079,0-.158c0-.04,0-.081,0-.121s0-.109,0-.163c0-.03,0-.06,0-.091,0-.006,0-.012,0-.019,0-.132,0-.264.008-.4,0-.027,0-.053,0-.08q.007-.2.018-.4v-.018c0-.023,0-.046,0-.069q.006-.106.014-.211c0-.036.006-.073.008-.109.005-.066.011-.132.017-.2,0-.036.006-.072.01-.108.007-.072.014-.144.022-.215,0-.029.006-.057.009-.085.011-.1.023-.2.036-.3v-.007l.007-.051q.015-.116.032-.232c0-.034.01-.068.016-.1.01-.063.019-.125.03-.188.006-.037.013-.075.019-.112q.015-.09.032-.179c.007-.037.014-.075.021-.112q.018-.092.036-.184l.014-.073.014-.068q.041-.192.086-.379c.01-.042.021-.084.031-.125.02-.082.04-.164.062-.244l.006-.023c.011-.043.024-.084.035-.126l.022-.077,2.47-.16-.022.077c-.014.05-.028.1-.042.149-.021.08-.042.162-.062.244-.01.042-.021.083-.032.125q-.044.187-.086.379c-.01.047-.019.094-.029.141s-.025.122-.036.184c-.007.037-.014.074-.021.112-.011.06-.022.119-.032.179-.006.037-.013.074-.019.112q-.015.094-.03.188c-.005.034-.011.068-.016.1-.011.077-.022.155-.033.232l-.008.058q-.019.149-.036.3c0,.028-.006.057-.009.085-.008.072-.015.144-.022.216,0,.036-.007.072-.01.108q-.009.1-.017.2c0,.036-.006.073-.008.109q-.007.106-.014.211c0,.029,0,.058-.006.087-.007.132-.013.264-.018.4,0,.027,0,.053,0,.08,0,.132-.007.264-.008.4,0,.036,0,.073,0,.109q0,.082,0,.163c0,.04,0,.081,0,.121s0,.106,0,.158c0,.028,0,.056,0,.084q.005.22.016.439c0,.019,0,.038,0,.057q.01.2.024.4c0,.009,0,.017,0,.025.01.128.021.256.032.384l.008.081q.018.186.04.372c0,.019,0,.038.007.057.014.117.029.234.045.35l.007.051-2.47.16Z" transform="translate(-1616.86 -644.05)" fill="#f9b953"/>
          <path id="Path_45769-2" data-name="Path 45769" d="M1619.82,695.725l-.03-.051-.057-.1-.056-.1-.056-.1-.027-.048-.014-.027q-.093-.172-.181-.349l-.013-.024-.015-.031q-.083-.169-.162-.342l-.009-.018-.014-.032q-.08-.177-.156-.358l0-.006-.007-.018q-.072-.174-.141-.352l-.011-.027,0-.012q-.067-.175-.13-.353l-.013-.036-.01-.03q-.061-.174-.119-.352l-.008-.025-.012-.038c-.039-.123-.078-.246-.115-.371v0l0-.012q-.054-.183-.1-.37l-.01-.037-.005-.02q-.049-.183-.094-.369c0-.012-.006-.023-.009-.035l-.009-.038q-.045-.187-.086-.376l0-.016c0-.012,0-.024-.007-.036q-.038-.18-.073-.361l-.006-.031,0-.012q-.035-.189-.067-.38l-.007-.04c0-.012,0-.025-.006-.037q-.03-.185-.057-.371v-.006l2.47-.16v.006q.026.186.057.371l.013.078q.032.191.067.38l.008.044q.035.181.073.361l.011.053q.041.189.086.376c.006.024.011.049.018.073q.045.186.094.369l.015.057q.05.186.1.37l0,.016c.037.125.075.248.115.371l.02.063q.057.178.119.352l.023.066q.063.179.13.354l.015.039q.069.178.141.352l.01.024c.051.121.1.24.156.358l.023.05q.079.173.162.342l.027.055q.088.177.181.349l.041.075.056.1.056.1.057.1.055.093.007.011-2.47.16-.007-.011Z" transform="translate(-1617.716 -676.955)" fill="#f8ab37"/>
        </g>
      </g>
      <g id="Group_66131" data-name="Group 66131" transform="translate(71.972 207.708)">
        <g id="Group_66130" data-name="Group 66130" transform="translate(2.651)">
          <g id="Group_66123" data-name="Group 66123" transform="translate(0.837 1.332)">
            <path id="Path_45770" data-name="Path 45770" d="M812.857,1496.793c3,4.487,4.825,9.668,4.067,11.573s-3.808-.189-6.812-4.677-4.825-9.668-4.067-11.572S809.853,1492.307,812.857,1496.793Zm3.368,10.529c.661-1.66-.926-6.175-3.545-10.086s-5.276-5.735-5.937-4.075.926,6.175,3.544,10.086,5.276,5.736,5.937,4.076Z" transform="translate(-805.873 -1491.414)" fill="#f89d1f"/>
          </g>
          <g id="Group_66124" data-name="Group 66124" transform="translate(2.838 4.211)">
            <path id="Path_45771" data-name="Path 45771" d="M818.685,1512.818c-.8-1.192-1.153-2.34-.894-2.992l.024-.061-.946-1.413.17-.426.946,1.413.109-.274-.946-1.413.169-.426.946,1.413.1-.252.2-.506.687,1.026-.1.239a1.415,1.415,0,0,0,.315.9l2.826,4.221c.233.348.469.51.528.362l.1-.239.688,1.027-.2.506-.1.252.946,1.413-.169.426-.946-1.413-.109.274.946,1.413-.17.426-.946-1.413-.044.111c-.268.674-.962.256-1.8-.989a5.089,5.089,0,0,1-.969-2.429C819.784,1514.088,819.3,1513.73,818.685,1512.818Zm3.193,2.975.228-.574-1.114-1.663-.225.565a1.634,1.634,0,0,0,.4,1.267c.359.537.606.666.71.406Zm-2.84-5.157-.2.51c-.1.255.029.675.374,1.191s.581.642.682.387l.2-.51-1.056-1.578Z" transform="translate(-816.869 -1507.226)" fill="#f89d1f"/>
          </g>
          <g id="Group_66129" data-name="Group 66129">
            <g id="Group_66125" data-name="Group 66125" transform="translate(4.771 7.621)">
              <path id="Path_45772" data-name="Path 45772" d="M827.9,1527.662c.345.515.581.642.682.387l.2-.51-1.056-1.578-.2.51C827.42,1526.726,827.55,1527.147,827.9,1527.662Z" transform="translate(-827.488 -1525.961)" fill="#fbc977"/>
            </g>
            <g id="Group_66126" data-name="Group 66126" transform="translate(1.558 2.467)">
              <path id="Path_45773" data-name="Path 45773" d="M815.921,1502.333c2.619,3.911,4.205,8.427,3.545,10.086s-3.319-.165-5.937-4.076-4.205-8.426-3.544-10.086S813.3,1498.422,815.921,1502.333Zm1.14,7.24.044-.111.946,1.413.17-.426-.946-1.413.109-.274.946,1.413.169-.426-.946-1.413.1-.252.2-.506-.687-1.027-.1.239c-.059.147-.3-.014-.528-.362l-2.826-4.221a1.413,1.413,0,0,1-.315-.9l.1-.239-.687-1.026-.2.506-.1.252-.946-1.413-.169.426.946,1.413-.109.275-.946-1.413-.17.426.946,1.413-.024.061c-.259.651.1,1.8.894,2.992.611.912,1.1,1.27,1.366,1.175a5.087,5.087,0,0,0,.969,2.429c.833,1.245,1.527,1.663,1.8.989Z" transform="translate(-809.834 -1497.644)" fill="#fbc977"/>
            </g>
            <g id="Group_66127" data-name="Group 66127" transform="translate(6.704 10.54)">
              <path id="Path_45774" data-name="Path 45774" d="M838.544,1543.83a1.634,1.634,0,0,1-.4-1.267l.225-.565,1.114,1.663-.228.574C839.15,1544.5,838.9,1544.366,838.544,1543.83Z" transform="translate(-838.111 -1541.998)" fill="#fbc977"/>
            </g>
            <g id="Group_66128" data-name="Group 66128">
              <path id="Path_45775" data-name="Path 45775" d="M809.414,1490.362c3.5,5.228,5.622,11.265,4.739,13.484s-4.437-.22-7.937-5.448-5.622-11.265-4.739-13.484S805.914,1485.134,809.414,1490.362Zm3.75,12.017c.758-1.9-1.063-7.086-4.067-11.573s-6.054-6.58-6.812-4.676,1.063,7.086,4.067,11.572,6.054,6.581,6.812,4.677Z" transform="translate(-801.277 -1484.094)" fill="#fbc977"/>
            </g>
          </g>
        </g>
        <path id="Path_45776" data-name="Path 45776" d="M836.534,1587.117l.028.026q.118.108.234.209l.031.027.074.064.054.046.078.065.049.041.09.073.036.029.124.1.033.025.091.069.045.033.077.056.05.036.071.05.052.035.067.046.052.034.065.042.052.033.064.039.052.031.063.037.051.029.062.034.05.027.061.032.049.025.061.03.047.023.062.028.045.02.064.027.04.017.071.027.031.012.1.034.017.005.082.025.034.009.063.016.038.008.056.012.04.007.053.009.04.005.051.006.039,0,.049,0h.124l.046,0,.037,0,.045-.005.036-.005.044-.008.034-.007.043-.011.032-.009.044-.015.029-.01.047-.02.024-.01c.023-.011.046-.023.068-.035l-2.651,1.516c-.022.013-.045.024-.068.036l-.024.01-.047.02-.029.01-.044.015-.032.009-.044.011-.034.007-.044.008-.036.005-.045.005-.037,0-.046,0h-.124l-.049,0-.04,0-.05-.006-.04-.005-.053-.009-.04-.007-.056-.012-.038-.008-.062-.016-.034-.009-.084-.025-.015,0-.1-.034-.032-.012-.071-.027-.04-.017-.064-.027-.045-.02-.062-.028-.047-.023-.061-.03-.049-.025-.061-.032-.05-.027-.062-.035-.051-.029-.063-.037-.052-.031-.064-.04-.052-.033-.066-.042-.052-.034-.068-.046-.051-.035-.071-.051-.049-.035-.077-.056-.045-.033-.093-.071-.03-.023-.124-.1-.035-.028-.091-.074-.048-.04-.08-.067-.053-.045-.076-.065-.015-.013-.015-.014q-.116-.1-.234-.21l-.028-.026-.13-.122,2.651-1.516Z" transform="translate(-825.191 -1568.265)" fill="#f89d1f"/>
        <path id="Path_45777" data-name="Path 45777" d="M812.583,1556.606l.067.108.074.117.091.143.066.1.118.183.066.1.124.188.081.122.171.253.043.063q.105.154.211.3l.008.011q.113.16.225.317l.026.037q.115.159.229.314l.035.047q.117.158.234.311l.036.047q.12.157.239.309l.034.043q.127.161.253.317l.032.04q.132.162.263.318l.032.038.113.133.037.043.149.172.031.035.124.14.052.058.1.115.052.057.146.157.019.02.162.169.039.041.187.189.009.009c.064.064.127.125.19.187l.035.034.105.1-2.651,1.516-.105-.1-.013-.012-.022-.021c-.063-.061-.126-.123-.19-.186l-.009-.009-.187-.19-.022-.022-.017-.017-.162-.17-.017-.019-.147-.158-.022-.023-.03-.033-.1-.115-.052-.058-.124-.14-.025-.029-.005-.006-.149-.172-.037-.043-.113-.133-.016-.019-.016-.02q-.131-.156-.263-.318l-.014-.017-.018-.022q-.126-.156-.254-.318l-.016-.02-.018-.023q-.12-.153-.24-.31l-.016-.021-.019-.025q-.117-.154-.234-.312l-.014-.019-.02-.028q-.114-.155-.229-.314l-.008-.012-.018-.025q-.112-.157-.225-.317l-.006-.008,0,0c-.07-.1-.141-.2-.211-.3l-.023-.034-.02-.029-.171-.253-.038-.057-.043-.065-.124-.188-.03-.046-.036-.055-.118-.183-.04-.062-.025-.041-.091-.143-.051-.081-.023-.036-.067-.108-.031-.05,2.651-1.517Z" transform="translate(-805.679 -1543.366)" fill="#f8ab37"/>
        <path id="Path_45778" data-name="Path 45778" d="M793.067,1515.283c.014.045.028.09.042.135l.027.083.057.171.03.09.065.19.024.07.043.122.039.109.04.11.044.12.042.112.045.12.047.121.045.115.05.126.045.114.052.129.045.109q.06.144.121.29l.025.059q.074.174.151.35l.014.031q.092.209.188.42l.022.049q.094.2.191.41l.035.073.095.2.039.081.086.174.042.084.125.248.006.012v0l.113.22.03.058.108.207.009.018.118.222.03.057.116.214,0,.008.123.223.027.05.123.219.02.035.107.188.037.065.121.209.01.017.132.223.038.064.091.152.063.1.082.134.068.11.052.084-2.651,1.517-.025-.041-.027-.043-.068-.11-.05-.082-.032-.052-.063-.1-.043-.071-.048-.081-.038-.064-.022-.038-.108-.183v0l-.01-.017-.1-.164-.026-.045-.037-.065-.042-.073-.065-.115-.02-.035-.008-.014-.089-.159-.026-.047-.027-.05-.035-.063-.087-.159h0l0-.008-.081-.149-.035-.065-.031-.057-.024-.046-.09-.171,0-.006-.01-.018-.077-.147-.031-.06-.03-.058-.027-.053-.085-.166,0,0h0l0-.006q-.064-.127-.127-.254l0-.009-.037-.076-.086-.174-.009-.018-.031-.063-.095-.2-.018-.037-.016-.035q-.1-.206-.192-.41l-.022-.049q-.1-.211-.189-.42l0-.008-.01-.023q-.077-.176-.151-.35l-.016-.037-.009-.022q-.061-.145-.121-.289l-.005-.012-.04-.1-.052-.129-.007-.017-.038-.1-.05-.126-.007-.019-.038-.1-.046-.12-.007-.019-.039-.1-.041-.11-.007-.017-.038-.1-.04-.109-.006-.016-.034-.095-.043-.121-.006-.017-.019-.054-.065-.19-.012-.036-.018-.053-.056-.171-.017-.053-.01-.03-.042-.136Z" transform="translate(-789.741 -1509.606)" fill="#f9b953"/>
        <path id="Path_45779" data-name="Path 45779" d="M787.338,1491.784l0-.009-.007-.022q-.049-.161-.094-.318l-.009-.03,0-.012q-.059-.205-.111-.406l0-.017,0-.012q-.029-.112-.056-.222l-.005-.023c-.016-.066-.031-.131-.046-.2l0-.015-.011-.051c-.012-.053-.024-.106-.035-.159l-.017-.079q-.015-.072-.029-.144l-.009-.046-.006-.035c-.008-.042-.016-.085-.023-.127,0-.026-.009-.052-.014-.078-.008-.046-.015-.092-.023-.137,0-.017-.006-.035-.009-.052l0-.011c-.007-.043-.013-.086-.019-.129l-.009-.06c-.008-.062-.016-.124-.023-.184h0c0-.021,0-.042-.007-.063,0-.037-.008-.074-.012-.111s0-.043-.005-.065-.007-.071-.009-.106v-.007c-.007-.1-.012-.188-.015-.279,0-.006,0-.011,0-.017s0,0,0-.007c0-.085,0-.168,0-.25,0-.008,0-.016,0-.024s0-.011,0-.016c0-.074,0-.146.008-.216,0-.006,0-.012,0-.018s0-.015,0-.023c0-.071.011-.141.019-.209v-.008c.008-.063.017-.124.027-.183,0-.008,0-.016,0-.023s0-.01,0-.015c.011-.059.023-.116.037-.172,0,0,0-.008,0-.012s0-.013.006-.02c.013-.05.027-.1.042-.147,0-.005,0-.011,0-.016l0-.007c.013-.04.027-.078.042-.115l.019-.047c.008-.019.017-.036.025-.054l.008-.018c.013-.028.027-.055.042-.082l.007-.012.013-.023c.014-.024.028-.046.043-.069l.015-.022.009-.013c.016-.023.033-.045.05-.066l.007-.009c.014-.017.027-.033.042-.049l.014-.014.021-.021.05-.047.02-.018.009-.008c.021-.017.042-.033.064-.049h0c.021-.015.043-.029.065-.042l.018-.011,2.651-1.516c-.028.016-.056.034-.083.053h0c-.025.018-.049.037-.073.057l-.02.018c-.017.015-.034.031-.05.047l-.021.021c-.019.02-.037.041-.055.063l-.007.009c-.02.025-.04.052-.059.079l-.015.022c-.015.022-.029.045-.042.069l-.013.023q-.025.045-.049.094l-.008.018c-.015.033-.03.066-.044.1s-.029.076-.042.115l-.007.023c-.015.047-.029.1-.042.147,0,.01-.006.021-.008.031-.014.056-.026.113-.037.172l-.006.037c-.01.06-.019.121-.027.183v.009c-.008.067-.014.137-.018.208,0,.013,0,.027,0,.041,0,.071-.007.143-.008.217,0,.013,0,.026,0,.04,0,.082,0,.165,0,.25,0,.008,0,.016,0,.024q0,.137.015.279v.007c0,.035.006.07.009.105s0,.043.006.065.008.074.012.111c0,.022,0,.042.007.064.007.061.015.122.023.184,0,.02.006.04.009.06.006.043.012.085.019.129l.01.064c.007.045.015.091.022.137l.014.078c.007.042.015.084.023.127l.016.081q.014.072.029.144l.017.079c.011.052.023.106.035.159l.015.066q.022.1.046.195l.006.024q.027.11.056.222l.008.029q.052.2.111.406l.012.042q.045.158.094.318l.01.031c.015.051.032.1.048.154l-2.651,1.516C787.37,1491.886,787.354,1491.835,787.338,1491.784Z" transform="translate(-786.712 -1484.744)" fill="#f9c166"/>
      </g>
      <g id="Group_66134" data-name="Group 66134" transform="translate(52.972 83.708)">
        <g id="Group_66130-2" data-name="Group 66130" transform="translate(2.651)">
          <g id="Group_66123-2" data-name="Group 66123" transform="translate(0.837 1.332)">
            <path id="Path_45770-2" data-name="Path 45770" d="M812.857,1496.793c3,4.487,4.825,9.668,4.067,11.573s-3.808-.189-6.812-4.677-4.825-9.668-4.067-11.572S809.853,1492.307,812.857,1496.793Zm3.368,10.529c.661-1.66-.926-6.175-3.545-10.086s-5.276-5.735-5.937-4.075.926,6.175,3.544,10.086,5.276,5.736,5.937,4.076Z" transform="translate(-805.873 -1491.414)" fill="#f89d1f"/>
          </g>
          <g id="Group_66124-2" data-name="Group 66124" transform="translate(2.838 4.211)">
            <path id="Path_45771-2" data-name="Path 45771" d="M818.685,1512.818c-.8-1.192-1.153-2.34-.894-2.992l.024-.061-.946-1.413.17-.426.946,1.413.109-.274-.946-1.413.169-.426.946,1.413.1-.252.2-.506.687,1.026-.1.239a1.415,1.415,0,0,0,.315.9l2.826,4.221c.233.348.469.51.528.362l.1-.239.688,1.027-.2.506-.1.252.946,1.413-.169.426-.946-1.413-.109.274.946,1.413-.17.426-.946-1.413-.044.111c-.268.674-.962.256-1.8-.989a5.089,5.089,0,0,1-.969-2.429C819.784,1514.088,819.3,1513.73,818.685,1512.818Zm3.193,2.975.228-.574-1.114-1.663-.225.565a1.634,1.634,0,0,0,.4,1.267c.359.537.606.666.71.406Zm-2.84-5.157-.2.51c-.1.255.029.675.374,1.191s.581.642.682.387l.2-.51-1.056-1.578Z" transform="translate(-816.869 -1507.226)" fill="#f89d1f"/>
          </g>
          <g id="Group_66129-2" data-name="Group 66129">
            <g id="Group_66125-2" data-name="Group 66125" transform="translate(4.771 7.621)">
              <path id="Path_45772-2" data-name="Path 45772" d="M827.9,1527.662c.345.515.581.642.682.387l.2-.51-1.056-1.578-.2.51C827.42,1526.726,827.55,1527.147,827.9,1527.662Z" transform="translate(-827.488 -1525.961)" fill="#fbc977"/>
            </g>
            <g id="Group_66126-2" data-name="Group 66126" transform="translate(1.558 2.467)">
              <path id="Path_45773-2" data-name="Path 45773" d="M815.921,1502.333c2.619,3.911,4.205,8.427,3.545,10.086s-3.319-.165-5.937-4.076-4.205-8.426-3.544-10.086S813.3,1498.422,815.921,1502.333Zm1.14,7.24.044-.111.946,1.413.17-.426-.946-1.413.109-.274.946,1.413.169-.426-.946-1.413.1-.252.2-.506-.687-1.027-.1.239c-.059.147-.3-.014-.528-.362l-2.826-4.221a1.413,1.413,0,0,1-.315-.9l.1-.239-.687-1.026-.2.506-.1.252-.946-1.413-.169.426.946,1.413-.109.275-.946-1.413-.17.426.946,1.413-.024.061c-.259.651.1,1.8.894,2.992.611.912,1.1,1.27,1.366,1.175a5.087,5.087,0,0,0,.969,2.429c.833,1.245,1.527,1.663,1.8.989Z" transform="translate(-809.834 -1497.644)" fill="#fbc977"/>
            </g>
            <g id="Group_66127-2" data-name="Group 66127" transform="translate(6.704 10.54)">
              <path id="Path_45774-2" data-name="Path 45774" d="M838.544,1543.83a1.634,1.634,0,0,1-.4-1.267l.225-.565,1.114,1.663-.228.574C839.15,1544.5,838.9,1544.366,838.544,1543.83Z" transform="translate(-838.111 -1541.998)" fill="#fbc977"/>
            </g>
            <g id="Group_66128-2" data-name="Group 66128">
              <path id="Path_45775-2" data-name="Path 45775" d="M809.414,1490.362c3.5,5.228,5.622,11.265,4.739,13.484s-4.437-.22-7.937-5.448-5.622-11.265-4.739-13.484S805.914,1485.134,809.414,1490.362Zm3.75,12.017c.758-1.9-1.063-7.086-4.067-11.573s-6.054-6.58-6.812-4.676,1.063,7.086,4.067,11.572,6.054,6.581,6.812,4.677Z" transform="translate(-801.277 -1484.094)" fill="#fbc977"/>
            </g>
          </g>
        </g>
        <path id="Path_45776-2" data-name="Path 45776" d="M836.534,1587.117l.028.026q.118.108.234.209l.031.027.074.064.054.046.078.065.049.041.09.073.036.029.124.1.033.025.091.069.045.033.077.056.05.036.071.05.052.035.067.046.052.034.065.042.052.033.064.039.052.031.063.037.051.029.062.034.05.027.061.032.049.025.061.03.047.023.062.028.045.02.064.027.04.017.071.027.031.012.1.034.017.005.082.025.034.009.063.016.038.008.056.012.04.007.053.009.04.005.051.006.039,0,.049,0h.124l.046,0,.037,0,.045-.005.036-.005.044-.008.034-.007.043-.011.032-.009.044-.015.029-.01.047-.02.024-.01c.023-.011.046-.023.068-.035l-2.651,1.516c-.022.013-.045.024-.068.036l-.024.01-.047.02-.029.01-.044.015-.032.009-.044.011-.034.007-.044.008-.036.005-.045.005-.037,0-.046,0h-.124l-.049,0-.04,0-.05-.006-.04-.005-.053-.009-.04-.007-.056-.012-.038-.008-.062-.016-.034-.009-.084-.025-.015,0-.1-.034-.032-.012-.071-.027-.04-.017-.064-.027-.045-.02-.062-.028-.047-.023-.061-.03-.049-.025-.061-.032-.05-.027-.062-.035-.051-.029-.063-.037-.052-.031-.064-.04-.052-.033-.066-.042-.052-.034-.068-.046-.051-.035-.071-.051-.049-.035-.077-.056-.045-.033-.093-.071-.03-.023-.124-.1-.035-.028-.091-.074-.048-.04-.08-.067-.053-.045-.076-.065-.015-.013-.015-.014q-.116-.1-.234-.21l-.028-.026-.13-.122,2.651-1.516Z" transform="translate(-825.191 -1568.265)" fill="#f89d1f"/>
        <path id="Path_45777-2" data-name="Path 45777" d="M812.583,1556.606l.067.108.074.117.091.143.066.1.118.183.066.1.124.188.081.122.171.253.043.063q.105.154.211.3l.008.011q.113.16.225.317l.026.037q.115.159.229.314l.035.047q.117.158.234.311l.036.047q.12.157.239.309l.034.043q.127.161.253.317l.032.04q.132.162.263.318l.032.038.113.133.037.043.149.172.031.035.124.14.052.058.1.115.052.057.146.157.019.02.162.169.039.041.187.189.009.009c.064.064.127.125.19.187l.035.034.105.1-2.651,1.516-.105-.1-.013-.012-.022-.021c-.063-.061-.126-.123-.19-.186l-.009-.009-.187-.19-.022-.022-.017-.017-.162-.17-.017-.019-.147-.158-.022-.023-.03-.033-.1-.115-.052-.058-.124-.14-.025-.029-.005-.006-.149-.172-.037-.043-.113-.133-.016-.019-.016-.02q-.131-.156-.263-.318l-.014-.017-.018-.022q-.126-.156-.254-.318l-.016-.02-.018-.023q-.12-.153-.24-.31l-.016-.021-.019-.025q-.117-.154-.234-.312l-.014-.019-.02-.028q-.114-.155-.229-.314l-.008-.012-.018-.025q-.112-.157-.225-.317l-.006-.008,0,0c-.07-.1-.141-.2-.211-.3l-.023-.034-.02-.029-.171-.253-.038-.057-.043-.065-.124-.188-.03-.046-.036-.055-.118-.183-.04-.062-.025-.041-.091-.143-.051-.081-.023-.036-.067-.108-.031-.05,2.651-1.517Z" transform="translate(-805.679 -1543.366)" fill="#f8ab37"/>
        <path id="Path_45778-2" data-name="Path 45778" d="M793.067,1515.283c.014.045.028.09.042.135l.027.083.057.171.03.09.065.19.024.07.043.122.039.109.04.11.044.12.042.112.045.12.047.121.045.115.05.126.045.114.052.129.045.109q.06.144.121.29l.025.059q.074.174.151.35l.014.031q.092.209.188.42l.022.049q.094.2.191.41l.035.073.095.2.039.081.086.174.042.084.125.248.006.012v0l.113.22.03.058.108.207.009.018.118.222.03.057.116.214,0,.008.123.223.027.05.123.219.02.035.107.188.037.065.121.209.01.017.132.223.038.064.091.152.063.1.082.134.068.11.052.084-2.651,1.517-.025-.041-.027-.043-.068-.11-.05-.082-.032-.052-.063-.1-.043-.071-.048-.081-.038-.064-.022-.038-.108-.183v0l-.01-.017-.1-.164-.026-.045-.037-.065-.042-.073-.065-.115-.02-.035-.008-.014-.089-.159-.026-.047-.027-.05-.035-.063-.087-.159h0l0-.008-.081-.149-.035-.065-.031-.057-.024-.046-.09-.171,0-.006-.01-.018-.077-.147-.031-.06-.03-.058-.027-.053-.085-.166,0,0h0l0-.006q-.064-.127-.127-.254l0-.009-.037-.076-.086-.174-.009-.018-.031-.063-.095-.2-.018-.037-.016-.035q-.1-.206-.192-.41l-.022-.049q-.1-.211-.189-.42l0-.008-.01-.023q-.077-.176-.151-.35l-.016-.037-.009-.022q-.061-.145-.121-.289l-.005-.012-.04-.1-.052-.129-.007-.017-.038-.1-.05-.126-.007-.019-.038-.1-.046-.12-.007-.019-.039-.1-.041-.11-.007-.017-.038-.1-.04-.109-.006-.016-.034-.095-.043-.121-.006-.017-.019-.054-.065-.19-.012-.036-.018-.053-.056-.171-.017-.053-.01-.03-.042-.136Z" transform="translate(-789.741 -1509.606)" fill="#f9b953"/>
        <path id="Path_45779-2" data-name="Path 45779" d="M787.338,1491.784l0-.009-.007-.022q-.049-.161-.094-.318l-.009-.03,0-.012q-.059-.205-.111-.406l0-.017,0-.012q-.029-.112-.056-.222l-.005-.023c-.016-.066-.031-.131-.046-.2l0-.015-.011-.051c-.012-.053-.024-.106-.035-.159l-.017-.079q-.015-.072-.029-.144l-.009-.046-.006-.035c-.008-.042-.016-.085-.023-.127,0-.026-.009-.052-.014-.078-.008-.046-.015-.092-.023-.137,0-.017-.006-.035-.009-.052l0-.011c-.007-.043-.013-.086-.019-.129l-.009-.06c-.008-.062-.016-.124-.023-.184h0c0-.021,0-.042-.007-.063,0-.037-.008-.074-.012-.111s0-.043-.005-.065-.007-.071-.009-.106v-.007c-.007-.1-.012-.188-.015-.279,0-.006,0-.011,0-.017s0,0,0-.007c0-.085,0-.168,0-.25,0-.008,0-.016,0-.024s0-.011,0-.016c0-.074,0-.146.008-.216,0-.006,0-.012,0-.018s0-.015,0-.023c0-.071.011-.141.019-.209v-.008c.008-.063.017-.124.027-.183,0-.008,0-.016,0-.023s0-.01,0-.015c.011-.059.023-.116.037-.172,0,0,0-.008,0-.012s0-.013.006-.02c.013-.05.027-.1.042-.147,0-.005,0-.011,0-.016l0-.007c.013-.04.027-.078.042-.115l.019-.047c.008-.019.017-.036.025-.054l.008-.018c.013-.028.027-.055.042-.082l.007-.012.013-.023c.014-.024.028-.046.043-.069l.015-.022.009-.013c.016-.023.033-.045.05-.066l.007-.009c.014-.017.027-.033.042-.049l.014-.014.021-.021.05-.047.02-.018.009-.008c.021-.017.042-.033.064-.049h0c.021-.015.043-.029.065-.042l.018-.011,2.651-1.516c-.028.016-.056.034-.083.053h0c-.025.018-.049.037-.073.057l-.02.018c-.017.015-.034.031-.05.047l-.021.021c-.019.02-.037.041-.055.063l-.007.009c-.02.025-.04.052-.059.079l-.015.022c-.015.022-.029.045-.042.069l-.013.023q-.025.045-.049.094l-.008.018c-.015.033-.03.066-.044.1s-.029.076-.042.115l-.007.023c-.015.047-.029.1-.042.147,0,.01-.006.021-.008.031-.014.056-.026.113-.037.172l-.006.037c-.01.06-.019.121-.027.183v.009c-.008.067-.014.137-.018.208,0,.013,0,.027,0,.041,0,.071-.007.143-.008.217,0,.013,0,.026,0,.04,0,.082,0,.165,0,.25,0,.008,0,.016,0,.024q0,.137.015.279v.007c0,.035.006.07.009.105s0,.043.006.065.008.074.012.111c0,.022,0,.042.007.064.007.061.015.122.023.184,0,.02.006.04.009.06.006.043.012.085.019.129l.01.064c.007.045.015.091.022.137l.014.078c.007.042.015.084.023.127l.016.081q.014.072.029.144l.017.079c.011.052.023.106.035.159l.015.066q.022.1.046.195l.006.024q.027.11.056.222l.008.029q.052.2.111.406l.012.042q.045.158.094.318l.01.031c.015.051.032.1.048.154l-2.651,1.516C787.37,1491.886,787.354,1491.835,787.338,1491.784Z" transform="translate(-786.712 -1484.744)" fill="#f9c166"/>
      </g>
    </g>
  </g>
</svg>
