<svg width="182" height="194" viewBox="0 0 182 194" fill="none" xmlns="http://www.w3.org/2000/svg">
<path d="M181.5 91.176C181.389 89.4638 180.675 87.6089 180.21 85.9759C178.927 81.4575 177.32 77.029 175.471 72.7167C172.84 66.5759 169.686 60.6571 166.009 55.0765C161.602 48.3861 156.441 42.1819 150.55 36.744C143.808 30.5081 136.131 25.3132 127.821 21.3973C114.797 15.2618 100.331 12.0752 85.9658 14.2577C81.8395 14.8866 77.7554 15.8167 73.7665 17.0533C64.7372 19.8489 56.2151 24.2616 48.8871 30.2491C41.0888 36.6224 34.8122 44.671 30.1945 53.5968C30.1945 53.5968 31.7478 35.4598 50.1445 16.5407C50.1445 16.5407 37.9664 13.9512 13.0975 40.6388C13.4515 40.2583 13.6734 39.5396 13.927 39.0904C14.7407 37.6582 15.6283 36.2736 16.5634 34.9208C19.8391 30.1751 23.7118 25.8364 27.9755 21.9628C34.1465 16.3557 41.1839 11.7317 48.755 8.25436C62.0902 2.14 76.9788 -0.539324 91.6084 0.0895513C101.256 0.50704 110.798 2.5205 119.843 5.88683C125.892 8.13809 131.751 10.9178 137.288 14.2366C143.755 18.1208 149.778 22.7502 155.104 28.0983C161.18 34.1915 166.31 41.1989 170.309 48.8194C175.059 57.8668 178.176 67.7015 179.93 77.753C180.702 82.1974 181.214 86.684 181.5 91.1813V91.176Z" fill="#FFEE71"/>
<path d="M0 130.383C0.607587 131.99 1.83861 133.554 2.75792 134.975C5.31507 138.918 8.14696 142.68 11.1849 146.263C15.5067 151.363 20.2617 156.098 25.413 160.352C31.5945 165.457 38.352 169.87 45.5796 173.342C53.8587 177.321 62.7294 180.038 71.8221 181.338C86.0819 183.378 100.854 182.178 113.952 175.868C117.713 174.055 121.343 171.963 124.798 169.611C132.613 164.284 139.465 157.562 144.717 149.677C150.301 141.291 153.942 131.752 155.738 121.854C155.738 121.854 159.579 139.658 147.543 163.153C147.543 163.153 159.949 162.054 175.899 129.22C175.672 129.685 175.672 130.436 175.561 130.943C175.202 132.55 174.758 134.135 174.261 135.705C172.518 141.206 170.093 146.491 167.155 151.453C162.902 158.629 157.529 165.119 151.305 170.673C140.358 180.45 126.912 187.383 112.731 191.077C103.38 193.514 93.6636 194.391 84.0267 193.831C77.581 193.455 71.1617 192.52 64.8903 190.972C57.5623 189.159 50.4456 186.496 43.778 182.95C36.1752 178.907 29.2118 173.717 23.1464 167.603C15.9505 160.347 10.0754 151.86 5.44715 142.76C3.40249 138.738 1.59558 134.6 0 130.378L0 130.383Z" fill="#FFEE71"/>
<path d="M143.523 72.0508C140.358 70.8407 137.22 69.6146 134.097 68.3727C128.787 66.2536 123.546 64.0763 118.39 61.788C115.214 60.3823 112.071 58.929 108.964 57.4282C103.612 54.844 98.3763 52.1065 93.2567 49.163V139.409L108.964 152.055V117.013L138.815 116.246H143.523L159.23 115.692V77.9697C153.947 75.9932 148.706 74.0379 143.523 72.0508ZM143.523 101.301H108.964V74.7936C112.076 76.2099 115.22 77.5786 118.39 78.9103C123.562 81.0982 128.803 83.1962 134.097 85.2466C137.22 86.4621 140.363 87.6617 143.523 88.8508V101.296V101.301Z" fill="#FFEE71"/>
<path d="M38.706 114.497V148.895H23.2468V66.5441H38.706V99.029H61.9792C66.4965 99.029 70.142 99.3196 72.9211 99.8956V51.0759H88.3802V148.884H72.9211V122.477C72.9211 120.738 72.715 119.496 72.3135 118.741C71.9067 117.99 71.0666 117.092 69.7933 116.046C69.5608 115.929 69.2703 115.787 68.9268 115.612C68.5781 115.438 68.2347 115.295 67.886 115.179C67.5373 115.063 67.1622 114.978 66.7554 114.92C66.3486 114.862 65.9417 114.804 65.5402 114.746C65.1334 114.687 64.7583 114.629 64.4096 114.571C64.0609 114.513 63.7174 114.487 63.3687 114.487H38.706V114.497Z" fill="#FFEE71"/>
</svg>
