<svg width="648" height="194" viewBox="0 0 648 194" fill="none" xmlns="http://www.w3.org/2000/svg">
<g clip-path="url(#clip0_127_2)">
<path d="M219.582 125.41H213.976V72.3734H219.582V125.41ZM253.29 100.937H218.975V96.0117H253.29V100.937ZM252.762 72.3734H258.293V125.41H252.762V72.3734Z" fill="#FFEE71"/>
<path d="M288.208 125.41V105.709L289.497 109.192L267 72.3682H272.986L292.757 104.721H289.576L309.347 72.3682H314.952L292.456 109.192L293.745 105.709V125.41H288.213H288.208Z" fill="#FFEE71"/>
<path d="M323.654 125.41V72.3734H343.498C347.994 72.3734 351.857 73.0921 355.09 74.5348C358.323 75.9723 360.807 78.0439 362.55 80.7496C364.294 83.4501 365.165 86.7213 365.165 90.5632C365.165 94.4052 364.294 97.5231 362.55 100.224C360.807 102.924 358.318 105.011 355.09 106.475C351.857 107.939 347.994 108.674 343.498 108.674H326.761L329.26 106.021V125.416H323.654V125.41ZM329.26 106.47L326.761 103.743H343.35C348.655 103.743 352.681 102.596 355.433 100.298C358.186 97.9987 359.56 94.754 359.56 90.5632C359.56 86.3725 358.186 83.0379 355.433 80.7126C352.681 78.3874 348.655 77.2247 343.35 77.2247H326.761L329.26 74.5718V106.47Z" fill="#FFEE71"/>
<path d="M383.647 120.564H415.537V125.416H378.041V72.3788H414.401V77.2301H383.647V120.57V120.564ZM383.039 96.0911H411.067V100.863H383.039V96.0911Z" fill="#FFEE71"/>
<path d="M428.714 125.41V72.3734H448.558C453.054 72.3734 456.916 73.0921 460.15 74.5348C463.383 75.9723 465.866 78.0439 467.61 80.7496C469.353 83.4501 470.225 86.7213 470.225 90.5632C470.225 94.4052 469.353 97.5231 467.61 100.224C465.866 102.924 463.378 104.996 460.15 106.438C456.916 107.876 453.054 108.6 448.558 108.6H431.82L434.319 106.026V125.421H428.714V125.41ZM434.319 106.47L431.82 103.817H448.41C453.715 103.817 457.741 102.655 460.493 100.329C463.246 98.004 464.62 94.7487 464.62 90.5579C464.62 86.3672 463.246 83.0326 460.493 80.7073C457.741 78.3821 453.715 77.2194 448.41 77.2194H431.82L434.319 74.5666V106.465V106.47ZM464.921 125.41L451.284 106.164H457.344L471.055 125.41H464.921Z" fill="#FFEE71"/>
<path d="M481.13 125.41V72.3734H504.081C508.825 72.3734 512.915 73.145 516.354 74.6828C519.788 76.2259 522.441 78.4349 524.306 81.3098C526.176 84.1899 527.106 87.5985 527.106 91.5356C527.106 95.4727 526.171 98.95 524.306 101.804C522.435 104.657 519.788 106.866 516.354 108.431C512.92 109.995 508.831 110.777 504.081 110.777H487.872L493.477 105.244V125.4H481.13V125.41ZM493.477 106.618L487.872 100.784H503.399C507.135 100.784 509.961 99.9752 511.884 98.3581C513.802 96.741 514.764 94.4686 514.764 91.5409C514.764 88.6132 513.802 86.3513 511.884 84.7607C509.967 83.17 507.14 82.372 503.399 82.372H487.872L493.477 76.5377V106.618Z" fill="white"/>
<path d="M562.256 126.319C558.067 126.319 554.199 125.638 550.665 124.274C547.13 122.911 544.05 120.992 541.424 118.514C538.798 116.041 536.764 113.134 535.327 109.799C533.89 106.465 533.166 102.829 533.166 98.8919C533.166 94.9548 533.885 91.2503 535.327 87.9421C536.764 84.6339 538.798 81.7432 541.424 79.2647C544.05 76.7915 547.114 74.8678 550.628 73.5044C554.136 72.1409 557.987 71.4592 562.177 71.4592C566.367 71.4592 570.218 72.1304 573.726 73.4674C577.235 74.8044 580.304 76.7122 582.93 79.1854C585.556 81.6586 587.59 84.5652 589.027 87.8998C590.464 91.2344 591.188 94.8967 591.188 98.8866C591.188 102.877 590.469 106.475 589.027 109.836C587.59 113.197 585.556 116.115 582.93 118.588C580.304 121.061 577.235 122.969 573.726 124.306C570.218 125.643 566.393 126.314 562.251 126.314L562.256 126.319ZM562.182 115.94C564.555 115.94 566.737 115.523 568.734 114.688C570.725 113.853 572.485 112.669 573.996 111.126C575.512 109.583 576.685 107.791 577.52 105.746C578.355 103.701 578.772 101.418 578.772 98.8919C578.772 96.3658 578.355 94.0829 577.52 92.0377C576.685 89.9925 575.512 88.201 573.996 86.6579C572.48 85.1201 570.725 83.931 568.734 83.0961C566.737 82.2611 564.555 81.8436 562.182 81.8436C559.81 81.8436 557.612 82.2611 555.594 83.0961C553.576 83.931 551.816 85.1148 550.332 86.6579C548.842 88.201 547.679 89.9925 546.845 92.0377C546.01 94.0829 545.593 96.3711 545.593 98.8919C545.593 101.413 546.01 103.701 546.845 105.746C547.679 107.791 548.842 109.583 550.332 111.126C551.822 112.669 553.576 113.853 555.594 114.688C557.612 115.523 559.81 115.94 562.182 115.94Z" fill="white"/>
<path d="M594.448 125.41L617.172 93.9665V102.908L595.43 72.3734H609.294L624.367 93.5861L618.461 93.7393L633.46 72.3734H646.716L625.054 102.374V93.5861L648.005 125.405H633.841L618.239 102.903H623.844L608.47 125.405H594.458L594.448 125.41Z" fill="white"/>
<path d="M181.5 91.1763C181.389 89.464 180.675 87.6091 180.21 85.9761C178.927 81.4578 177.32 77.0292 175.471 72.7169C172.84 66.5761 169.686 60.6573 166.009 55.0767C161.602 48.3863 156.441 42.1821 150.55 36.7442C143.808 30.5083 136.131 25.3135 127.821 21.3976C114.797 15.2621 100.331 12.0754 85.9658 14.258C81.8395 14.8869 77.7554 15.817 73.7665 17.0536C64.7372 19.8492 56.2151 24.2618 48.8871 30.2494C41.0888 36.6227 34.8122 44.6712 30.1945 53.597C30.1945 53.597 31.7478 35.46 50.1445 16.541C50.1445 16.541 37.9664 13.9515 13.0975 40.639C13.4515 40.2585 13.6734 39.5398 13.927 39.0906C14.7407 37.6585 15.6283 36.2739 16.5634 34.921C19.8391 30.1754 23.7118 25.8367 27.9755 21.963C34.1465 16.356 41.1839 11.7319 48.755 8.2546C62.0902 2.14025 76.9788 -0.53908 91.6084 0.0897954C101.256 0.507284 110.798 2.52074 119.843 5.88707C125.892 8.13834 131.751 10.9181 137.288 14.2368C143.755 18.1211 149.778 22.7504 155.104 28.0985C161.18 34.1917 166.31 41.1992 170.309 48.8197C175.059 57.867 178.176 67.7018 179.93 77.7532C180.702 82.1976 181.214 86.6843 181.5 91.1815V91.1763Z" fill="#FFEE71"/>
<path d="M0 130.383C0.607587 131.99 1.83861 133.554 2.75792 134.976C5.31507 138.918 8.14696 142.681 11.1849 146.264C15.5067 151.363 20.2617 156.098 25.413 160.353C31.5945 165.458 38.352 169.87 45.5796 173.342C53.8587 177.322 62.7294 180.038 71.8221 181.338C86.0819 183.378 100.854 182.178 113.952 175.868C117.713 174.056 121.343 171.963 124.798 169.611C132.613 164.284 139.465 157.562 144.717 149.678C150.301 141.291 153.942 131.752 155.738 121.854C155.738 121.854 159.579 139.658 147.543 163.153C147.543 163.153 159.949 162.054 175.899 129.221C175.672 129.686 175.672 130.436 175.561 130.943C175.202 132.55 174.758 134.135 174.261 135.705C172.518 141.206 170.093 146.491 167.155 151.453C162.902 158.63 157.529 165.119 151.305 170.673C140.358 180.45 126.912 187.384 112.731 191.078C103.38 193.514 93.6636 194.391 84.0267 193.831C77.581 193.456 71.1617 192.52 64.8903 190.972C57.5623 189.159 50.4456 186.496 43.778 182.95C36.1752 178.907 29.2118 173.717 23.1464 167.603C15.9505 160.347 10.0754 151.86 5.44715 142.76C3.40249 138.738 1.59558 134.6 0 130.378L0 130.383Z" fill="#FFEE71"/>
<path d="M143.523 72.0511C140.358 70.8409 137.22 69.6149 134.097 68.373C128.787 66.2538 123.546 64.0765 118.39 61.7883C115.214 60.3825 112.071 58.9293 108.964 57.4284C103.612 54.8442 98.3763 52.1068 93.2567 49.1632V139.409L108.964 152.056V117.013L138.815 116.247H143.523L159.23 115.692V77.9699C153.947 75.9934 148.706 74.0381 143.523 72.0511ZM143.523 101.302H108.964V74.7938C112.076 76.2101 115.22 77.5788 118.39 78.9106C123.562 81.0984 128.803 83.1964 134.097 85.2469C137.22 86.4624 140.363 87.662 143.523 88.851V101.296V101.302Z" fill="#FFEE71"/>
<path d="M38.706 114.497V148.895H23.2468V66.5444H38.706V99.0292H61.9792C66.4965 99.0292 70.142 99.3199 72.9211 99.8959V51.0762H88.3802V148.885H72.9211V122.477C72.9211 120.739 72.715 119.497 72.3135 118.741C71.9067 117.991 71.0666 117.092 69.7933 116.046C69.5608 115.93 69.2703 115.787 68.9268 115.612C68.5781 115.438 68.2347 115.295 67.886 115.179C67.5373 115.063 67.1622 114.978 66.7554 114.92C66.3486 114.862 65.9417 114.804 65.5402 114.746C65.1334 114.688 64.7583 114.63 64.4096 114.571C64.0609 114.513 63.7174 114.487 63.3687 114.487H38.706V114.497Z" fill="#FFEE71"/>
</g>
<defs>
<clipPath id="clip0_127_2">
<rect width="648" height="194" fill="white"/>
</clipPath>
</defs>
</svg>
